<svg version="1.1" id="Layer_1" xmlns="http://www.w3.org/2000/svg" xmlns:xlink="http://www.w3.org/1999/xlink" x="0px" y="0px"
	 width="100%" viewBox="0 0 1024 448" enable-background="new 0 0 1024 448" xml:space="preserve">
<path fill="#F4F4F4" opacity="1.000000" stroke="none" 
	d="
M1025.000000,190.000000 
	C1025.000000,276.281647 1025.000000,362.563324 1025.000000,449.000000 
	C871.976746,449.000000 718.953369,449.000000 565.495239,448.654724 
	C571.122620,443.247314 571.896973,436.596283 569.686523,429.734558 
	C567.604431,423.271423 562.342102,420.143829 555.642212,419.534729 
	C553.661560,419.354706 551.668152,419.226593 549.680542,419.225281 
	C532.904846,419.214355 516.129150,419.221008 499.353577,419.273621 
	C497.206085,419.280334 495.025696,419.395691 492.918640,419.779572 
	C485.783051,421.079437 481.194794,426.906128 480.706146,434.069885 
	C480.282990,440.273407 483.320221,444.694916 487.000000,449.000000 
	C325.048187,449.000000 163.096359,449.000000 1.072275,449.000000 
	C1.072275,299.759308 1.072275,150.518539 1.072275,1.000000 
	C171.356552,1.000000 341.713257,1.000000 512.462158,1.368465 
	C512.114685,5.624669 510.772156,9.508093 510.744324,13.400927 
	C510.646790,27.028885 510.924866,40.661812 511.227142,54.289150 
	C511.337311,59.255386 511.500092,64.286758 512.385437,69.152573 
	C513.473145,75.130241 518.128479,78.926727 524.144470,79.773834 
	C534.423828,81.221291 541.580750,75.278023 541.693542,64.487022 
	C541.876038,47.029610 541.755920,29.564884 541.427307,12.109577 
	C541.357300,8.392471 539.846802,4.702484 539.000000,1.000001 
	C700.892395,1.000000 862.784851,1.000000 1025.000000,1.000000 
	C1025.000000,54.689560 1025.000000,108.379768 1024.736572,162.534546 
	C1024.297607,163.002609 1024.122070,163.006088 1023.776245,162.691635 
	C1023.190918,160.525482 1022.775818,158.677277 1022.356812,156.476105 
	C1022.096313,155.750748 1021.839844,155.378357 1021.694458,154.619568 
	C1020.384094,143.887756 1013.654907,137.690247 1004.745056,133.939987 
	C991.894287,128.531021 978.592712,128.611389 965.882263,134.215408 
	C955.319336,138.872543 947.371887,146.772995 946.669678,158.944122 
	C946.138611,168.150391 947.029663,177.510437 948.101807,186.707169 
	C948.636963,191.297821 950.995300,195.675934 952.638550,200.511139 
	C956.233154,208.233002 959.460388,215.729904 963.257385,222.926117 
	C970.778259,237.180054 978.576233,251.288589 986.331177,265.417938 
	C992.533203,276.718079 995.680115,288.765564 995.957520,301.659363 
	C996.033691,305.197235 994.851257,306.438507 991.431946,306.328491 
	C987.442993,306.200134 983.425049,306.168396 979.453857,306.501984 
	C974.560486,306.913086 972.629517,305.384003 972.984253,300.100555 
	C973.485107,292.643127 973.138184,285.126343 973.088928,277.635345 
	C973.058533,273.010468 970.492310,270.481628 966.035767,270.212860 
	C961.890686,269.962830 957.700500,269.971191 953.559631,270.271454 
	C949.132568,270.592529 946.586670,273.046844 946.628723,277.756989 
	C946.709045,286.744965 946.670837,295.734497 946.812988,304.721313 
	C946.992798,316.089111 953.761536,326.083099 964.809631,328.958649 
	C973.225586,331.149139 982.169495,332.667664 990.807922,332.378082 
	C1011.854675,331.672577 1023.193848,318.935028 1023.356140,298.042877 
	C1023.470093,283.366150 1019.874084,269.666473 1012.984802,256.889008 
	C1002.494385,237.432709 991.631287,218.177353 980.933655,198.478455 
	C975.261597,186.631500 973.435974,174.446213 974.027710,161.733536 
	C974.195190,158.134430 975.351501,156.577652 979.048035,156.775055 
	C983.034302,156.987930 987.048645,157.020096 991.033875,156.810715 
	C995.084656,156.597900 996.634399,158.046814 996.507507,162.269363 
	C996.247498,170.920441 996.444031,179.586227 996.505432,188.245590 
	C996.538086,192.845886 998.862305,195.413940 1003.522888,195.561020 
	C1007.349060,195.681778 1011.182617,195.568436 1015.009094,195.684616 
	C1019.317505,195.815430 1022.455261,194.264893 1024.164795,189.990768 
	C1024.628784,189.998276 1024.814331,189.999130 1025.000000,190.000000 
M106.088203,195.065369 
	C106.153915,182.435059 106.219635,169.804749 106.159958,157.159439 
	C106.159958,157.159439 106.202637,157.278290 107.095512,157.133133 
	C110.752792,157.033417 114.423729,157.096252 118.063728,156.790710 
	C122.144173,156.448196 123.172592,158.276459 123.090668,162.081497 
	C122.782478,176.396637 122.634468,190.717178 122.607811,205.036026 
	C122.538963,242.015076 122.558914,278.994293 122.582230,315.973419 
	C122.583244,317.579559 122.969795,319.185455 123.204010,321.581421 
	C123.385170,322.349243 123.566338,323.117035 123.446960,324.347992 
	C123.761696,324.953705 124.076431,325.559418 124.691307,326.884949 
	C126.923073,328.080811 129.042175,329.884216 131.414139,330.324066 
	C134.628601,330.920197 138.043564,330.606445 141.360596,330.442108 
	C148.133514,330.106628 150.211044,328.024384 150.216675,321.192688 
	C150.250015,280.779114 150.207382,240.365417 150.579926,199.254395 
	C150.446564,185.776367 150.773849,172.273651 150.052734,158.827148 
	C149.303284,144.852478 141.881577,135.740799 130.087296,132.517410 
	C115.720901,128.591049 101.886581,132.590576 94.005165,142.814484 
	C93.641434,142.898224 93.277702,142.981949 92.613831,142.473068 
	C88.301308,135.451401 81.615944,132.470856 73.780960,132.030823 
	C66.149681,131.602249 58.487820,131.630493 50.839142,131.618820 
	C37.537060,131.598511 35.271835,133.898346 35.117477,147.360336 
	C34.903934,165.984161 34.606815,184.608109 34.559864,203.232544 
	C34.463402,241.496140 34.500919,279.760101 34.526119,318.023895 
	C34.527168,319.614471 34.960766,321.204773 35.258251,323.524109 
	C36.478912,325.496857 37.699577,327.469635 38.909954,329.906891 
	C39.553234,330.004364 40.196514,330.101837 41.784138,330.357941 
	C45.701096,330.374146 49.618298,330.425293 53.534943,330.397308 
	C57.985218,330.365540 61.054867,328.508453 62.272736,323.679749 
	C62.196716,323.181305 62.120697,322.682861 62.099728,321.225250 
	C62.100929,280.782074 62.102135,240.338882 62.459080,199.321045 
	C62.367222,188.845856 62.140854,178.369675 62.218674,167.895737 
	C62.309238,155.707413 59.782425,156.884155 73.808411,156.790543 
	C77.912239,156.763153 79.243088,158.122360 79.114220,162.300507 
	C78.694107,175.921982 78.539780,189.555252 78.509956,203.184464 
	C78.427704,240.776443 78.450653,278.368683 78.478889,315.960785 
	C78.480202,317.716309 78.934807,319.471527 79.344681,322.013428 
	C80.730278,329.321594 82.127510,330.492157 89.646805,330.546509 
	C91.973236,330.563354 94.301750,330.536530 96.626778,330.456390 
	C103.666649,330.213776 105.994911,328.031067 106.041191,321.162262 
	C106.128525,308.198059 106.074142,295.232697 106.043205,282.267914 
	C105.976974,254.512939 105.888161,226.758011 106.096840,198.284576 
	C106.019043,197.515152 105.941254,196.745728 106.088203,195.065369 
M431.280823,193.271698 
	C431.073364,183.498734 430.865906,173.725769 430.776550,163.063690 
	C430.551300,161.899368 430.326050,160.735031 430.289917,159.428619 
	C430.289917,159.428619 430.076569,159.039215 430.109924,158.958344 
	C430.109924,158.958344 430.045105,158.899567 430.160431,158.120178 
	C426.862335,142.105957 414.788361,132.082947 396.860260,131.270844 
	C387.067291,130.827225 377.229614,131.362915 367.412231,131.468307 
	C355.788300,131.593094 353.764099,133.535553 353.525848,145.121185 
	C353.132446,164.250534 352.585846,183.380508 352.510406,202.511826 
	C352.360718,240.461319 352.479553,278.411926 352.530640,316.362030 
	C352.532806,317.957123 352.970459,319.551636 353.280884,321.975433 
	C353.674164,325.830963 354.138397,329.641449 358.975403,331.156372 
	C359.575714,331.099884 360.176056,331.043365 361.740204,331.046112 
	C374.228546,331.028687 386.716919,331.011292 399.418396,331.344391 
	C399.877441,331.189087 400.336487,331.033783 401.619507,330.820801 
	C411.953369,329.594269 421.642517,326.514191 426.390320,316.483002 
	C429.077087,310.806427 430.745972,304.100677 430.829376,297.831268 
	C431.259308,265.517273 431.027618,233.194443 431.358887,200.338089 
	C431.237701,198.234406 431.116516,196.130707 431.280823,193.271698 
M185.982407,157.013885 
	C185.982407,157.013885 185.903381,157.059372 186.225342,157.828079 
	C186.422272,159.955414 186.761490,162.080688 186.792480,164.210449 
	C186.961090,175.806137 187.053802,187.402954 187.010818,199.924698 
	C186.970459,217.086288 186.888519,234.247910 186.901672,251.409454 
	C186.914337,267.905182 186.994629,284.401062 187.121872,300.896301 
	C187.144592,303.841400 186.950180,305.813263 183.102325,306.333923 
	C181.373779,306.567780 179.023148,309.440979 178.706467,311.399719 
	C177.998749,315.777344 178.234802,320.337891 178.382080,324.814178 
	C178.508575,328.658325 181.031204,330.492706 184.647751,330.539673 
	C195.309570,330.678162 205.983780,330.914246 216.627884,330.485443 
	C218.782242,330.398621 222.237747,327.858978 222.639145,325.937500 
	C223.600235,321.336517 223.680923,316.336670 222.930588,311.689392 
	C222.587555,309.564636 219.745270,306.977875 217.498993,306.242493 
	C214.617447,305.299164 213.902069,304.089203 213.939392,301.375854 
	C214.079239,291.213104 214.098495,281.048126 214.089188,270.884033 
	C214.067245,246.893799 214.002975,222.903610 214.194870,198.023712 
	C214.318710,184.390457 214.442551,170.757202 214.864304,157.221924 
	C214.864304,157.221924 215.066055,156.981812 215.820343,157.035324 
	C220.868668,156.493820 223.124756,153.544189 222.961075,148.619095 
	C222.845337,145.136627 222.657990,141.654434 222.406570,138.179092 
	C222.102524,133.976303 219.780502,131.949371 215.557220,131.955612 
	C205.419083,131.970612 195.280884,131.919693 185.142700,131.923004 
	C181.127594,131.924301 178.955322,134.042206 178.703110,137.986588 
	C178.459579,141.794907 178.333374,145.614548 178.287857,149.430786 
	C178.227020,154.531494 180.808853,157.116562 185.982407,157.013885 
M769.617859,133.602493 
	C769.617859,133.602493 769.534729,133.662491 768.895508,133.933517 
	C764.899902,140.240265 766.153687,146.988861 767.431946,153.659836 
	C767.635742,154.723068 769.052002,156.182022 770.089966,156.353317 
	C775.923218,157.315903 775.347229,161.428741 775.351501,165.689011 
	C775.362610,176.805542 775.661560,187.921753 775.769409,199.968018 
	C775.841064,232.342194 775.912720,264.716370 775.507385,297.680023 
	C775.313416,300.363770 775.119446,303.047546 774.274109,305.919983 
	C773.822754,305.941498 773.371460,305.963013 772.683228,305.572205 
	C772.048340,305.849274 771.413452,306.126343 770.192261,306.732361 
	C769.367188,307.462585 768.542053,308.192810 767.220154,308.945099 
	C767.147461,309.604980 767.074768,310.264893 766.915100,311.861786 
	C766.915649,316.268188 766.916199,320.674591 766.511597,325.336945 
	C766.815979,325.962250 767.120422,326.587555 767.726990,327.840790 
	C768.781982,328.678558 769.837036,329.516327 771.226746,331.008484 
	C782.335388,331.157867 793.443848,331.329254 804.552979,331.414093 
	C805.425659,331.420746 806.302917,330.824585 807.871765,330.326569 
	C809.076782,329.275940 810.281799,328.225342 811.960266,327.113708 
	C811.982300,326.436859 812.004333,325.760010 812.100464,324.141815 
	C812.221863,321.993927 812.474182,319.843811 812.437561,317.698608 
	C812.360535,313.189819 812.409424,308.554779 806.868896,305.791901 
	C803.030762,305.633759 803.949707,302.203430 802.964783,299.144470 
	C803.046204,265.768219 803.127563,232.391968 803.688721,198.347321 
	C803.658752,185.226624 803.628723,172.105911 803.867310,158.412598 
	C803.922119,158.209015 803.976868,158.005432 804.736145,157.698135 
	C810.171204,156.903671 812.431030,153.712143 812.030396,148.313019 
	C811.833923,145.665100 812.035278,142.990143 811.927124,140.332703 
	C811.667297,133.949036 809.385559,131.638275 803.016785,131.569916 
	C793.869629,131.471710 784.718262,131.412628 775.574707,131.612427 
	C773.604858,131.655441 771.660583,132.871826 769.617859,133.602493 
M298.036133,157.059692 
	C298.036133,157.059692 298.244202,157.046631 298.383606,157.862518 
	C298.501831,160.013290 298.695618,162.163010 298.725677,164.315018 
	C298.887817,175.926743 299.009430,187.539062 299.020905,200.062256 
	C298.992981,240.403702 298.965027,280.745148 298.548798,321.452942 
	C298.856995,322.379700 299.165192,323.306458 299.654633,324.954773 
	C300.572021,328.653564 303.058807,330.383392 307.234406,331.133087 
	C311.247894,330.976776 315.261353,330.820465 320.063965,330.636658 
	C326.644531,329.736023 326.325592,324.655579 326.339294,319.984009 
	C326.452850,281.328064 326.503906,242.671921 326.552551,204.015808 
	C326.554657,202.356003 326.348450,200.695923 326.666779,198.333908 
	C326.650604,187.510605 327.012238,176.670776 326.539490,165.867447 
	C325.558746,143.454346 314.171997,132.190048 291.622406,131.347290 
	C280.982941,130.949677 270.309204,131.340881 259.654083,131.539795 
	C253.574554,131.653275 250.520950,134.108429 250.338715,140.268951 
	C249.748871,160.209290 249.607895,180.162903 249.233780,201.032486 
	C249.149384,238.121109 249.042236,275.209717 249.012436,312.298401 
	C249.009109,316.442078 248.907379,320.718567 249.883606,324.679016 
	C250.446472,326.962494 253.080307,328.735504 255.280228,331.259125 
	C260.128967,331.132538 264.977692,331.005951 270.545959,330.811279 
	C272.179047,329.607056 273.812164,328.402863 275.920380,327.159760 
	C275.968292,326.467987 276.016174,325.776245 276.184448,324.141083 
	C276.300354,309.337158 276.525726,294.533112 276.508331,279.729340 
	C276.476654,252.775223 276.300903,225.821289 276.458008,197.977142 
	C276.465363,186.171280 276.657715,174.361221 276.388580,162.561661 
	C276.281616,157.870544 278.197815,156.283035 282.512177,156.451385 
	C287.660370,156.652283 292.813263,156.731873 298.036133,157.059692 
M918.210205,188.080154 
	C918.146057,179.718246 918.081909,171.356354 918.182983,162.161530 
	C916.170532,148.425018 910.603210,137.477814 896.192200,132.956223 
	C885.349731,129.554306 874.515503,129.462402 863.695557,132.464005 
	C851.575867,135.826187 843.007568,143.452042 841.744507,156.230042 
	C840.315247,170.689438 840.530396,185.311371 839.976746,200.815857 
	C839.981323,232.282913 839.985840,263.749969 839.560425,295.684143 
	C839.816956,297.499084 840.073547,299.314026 840.461121,301.985626 
	C841.418457,313.420258 845.145081,323.392761 856.574219,328.102112 
	C871.162415,334.113129 886.003845,334.716125 900.763184,328.313477 
	C909.146729,324.676636 915.004272,318.597382 916.040100,309.430084 
	C917.246948,298.749969 917.619934,287.956085 917.892212,277.199860 
	C917.995667,273.112366 914.896423,271.063049 910.889954,270.913574 
	C907.063171,270.770813 903.225952,270.756042 899.397339,270.849731 
	C893.169006,271.002136 890.992920,273.128235 890.895142,279.361725 
	C890.782837,286.523621 890.610535,293.703552 890.993347,300.847290 
	C891.235352,305.362122 889.613159,306.807220 885.321533,306.487183 
	C882.011475,306.240356 878.662781,306.552582 875.331421,306.544434 
	C867.413330,306.525024 867.356628,306.368439 867.362366,298.400909 
	C867.385986,265.250763 867.357727,232.100647 867.818359,198.288651 
	C867.877258,186.126358 868.032898,173.963303 867.935364,161.802261 
	C867.906616,158.218689 869.027344,156.537262 872.769958,156.702988 
	C876.928101,156.887115 881.112244,157.022034 885.259399,156.764862 
	C889.462158,156.504211 890.727783,158.122406 890.593079,162.258621 
	C890.327698,170.412659 890.374817,178.591354 890.684021,186.744995 
	C890.924438,193.084473 893.497375,195.419373 899.708862,195.656830 
	C903.368103,195.796738 907.053711,195.875534 910.698364,195.598801 
	C914.671997,195.297104 917.752197,193.606827 918.210205,188.080154 
M674.655884,156.895264 
	C675.118347,156.884308 675.580811,156.873367 676.739929,157.253174 
	C679.881653,157.339218 683.033752,157.623703 686.162292,157.459152 
	C689.768188,157.269501 691.173096,158.541428 691.108887,162.293945 
	C690.919006,173.384689 691.034546,184.480652 691.029968,195.574570 
	C691.028137,199.976883 691.024719,204.379211 690.991821,209.745819 
	C691.001953,240.235947 691.012085,270.726074 690.599426,301.683899 
	C690.824402,303.505707 691.049438,305.327515 691.310974,308.063141 
	C691.448059,313.214630 691.456360,318.373749 691.761047,323.515320 
	C692.026001,327.986938 694.433899,330.539276 699.116089,330.554901 
	C702.773499,330.567108 706.431702,330.532684 710.088013,330.602051 
	C715.020386,330.695557 718.015015,328.554047 718.489136,323.468048 
	C718.704346,321.159363 718.923584,318.839233 718.924866,316.524200 
	C718.945679,278.946869 718.931702,241.369537 719.323486,203.224579 
	C719.211426,189.759247 719.202271,176.291794 718.923035,162.829926 
	C718.841797,158.910461 720.172058,157.446411 724.104858,157.673065 
	C727.909790,157.892365 731.757629,157.719162 735.565796,157.436874 
	C739.799866,157.123016 742.320801,154.871597 742.324158,150.377853 
	C742.326843,146.720245 742.399170,143.058655 742.256897,139.405991 
	C742.071960,134.656998 739.609497,131.988068 734.726318,131.967316 
	C714.932800,131.883163 695.138916,131.769409 675.345581,131.823364 
	C670.914246,131.835449 668.144836,134.172546 668.125427,138.945877 
	C668.108582,143.100525 667.952515,147.267044 668.209106,151.406540 
	C668.419006,154.792496 670.171509,157.001999 674.655884,156.895264 
M642.273682,302.216919 
	C642.178162,292.540375 642.082642,282.863800 642.014221,272.226776 
	C642.007324,262.755798 642.000427,253.284805 642.376892,243.147980 
	C642.284058,215.506638 642.582031,187.856064 641.928833,160.227966 
	C641.616272,147.005966 634.157410,137.873932 621.557007,133.353287 
	C611.757324,129.837463 601.672913,128.999420 591.571106,131.532333 
	C579.254395,134.620590 567.359192,140.154053 565.363220,153.747787 
	C562.995544,169.872757 563.616455,186.436554 562.927307,203.771179 
	C562.938293,229.573242 562.949219,255.375305 562.522156,281.813690 
	C562.818420,287.258331 563.114746,292.702942 563.509460,299.016144 
	C563.670593,301.061096 563.831726,303.106018 563.601685,305.359985 
	C563.858459,305.965149 564.115234,306.570343 564.538452,307.915924 
	C564.660950,308.664795 564.783447,309.413696 564.547424,310.574921 
	C565.237061,312.064240 565.926636,313.553558 566.866699,315.719147 
	C569.619507,321.777130 574.160217,326.039215 580.313232,328.384979 
	C590.099670,332.115936 600.292480,333.792816 610.671021,332.100616 
	C627.232849,329.400269 639.639771,323.274017 642.273682,302.216919 
M533.389038,198.296448 
	C533.052795,184.849274 533.720215,171.279938 532.102417,157.988770 
	C530.432739,144.271576 520.537231,134.959244 506.879578,133.380020 
	C494.857025,131.989899 482.635834,132.213684 470.497467,131.961899 
	C460.947540,131.763824 458.671692,133.922791 458.566559,143.638519 
	C458.375488,161.295822 458.476135,178.956329 458.488373,196.615494 
	C458.488922,197.409775 458.817657,198.203812 458.860138,199.927567 
	C458.814880,232.409714 458.760193,264.891846 458.730621,297.373993 
	C458.722717,306.035858 458.787567,314.697845 458.827301,323.359711 
	C458.846252,327.489624 460.918579,330.446259 464.992371,330.386292 
	C480.457153,330.158691 496.032013,330.515564 511.340057,328.724915 
	C523.515015,327.300720 532.388611,319.207092 533.989441,306.641907 
	C535.682617,293.351227 535.648621,279.812653 535.901062,266.373566 
	C536.188721,251.056717 533.813538,236.694458 517.815857,228.007538 
	C529.323242,221.251526 531.892944,210.487213 533.389038,198.296448 
M474.523743,396.790710 
	C476.687500,396.796967 478.851257,396.810028 481.015015,396.808411 
	C515.966797,396.782410 550.918579,396.786743 585.870239,396.701385 
	C593.306885,396.683228 598.348511,392.983582 600.199890,386.642365 
	C603.369324,375.786560 596.473083,366.796143 584.642334,366.777618 
	C545.363037,366.716187 506.083496,366.768402 466.804138,366.824280 
	C456.921844,366.838318 451.022278,372.090790 450.887482,380.761749 
	C450.732269,390.744537 456.150238,396.274170 466.546417,396.694702 
	C468.873627,396.788818 471.205902,396.759125 474.523743,396.790710 
M605.941223,76.429962 
	C610.816101,68.686882 615.675476,60.934036 620.570679,53.203865 
	C624.572937,46.883701 629.010925,40.802628 632.553650,34.236740 
	C638.149902,23.864773 630.950378,12.598296 619.234924,12.661432 
	C613.509155,12.692289 609.363220,15.401762 606.350464,19.943022 
	C595.963928,35.599007 585.395569,51.145508 575.455505,67.082352 
	C569.401978,76.787804 576.087341,88.139580 587.598022,89.044121 
	C596.853699,89.771477 601.268311,83.584953 605.941223,76.429962 
M441.612213,63.881546 
	C446.495361,70.617264 451.012360,77.662201 456.365479,84.001007 
	C461.629150,90.233940 470.760559,90.402946 477.070557,85.237312 
	C483.638031,79.860886 484.347046,72.836327 478.558472,64.289490 
	C468.568024,49.538681 458.373199,34.923668 448.052582,20.402004 
	C446.502289,18.220621 444.052612,16.281832 441.592072,15.221893 
	C435.421448,12.563767 427.874756,15.117700 423.368652,20.815454 
	C419.345795,25.902164 419.273529,31.887537 423.664673,38.374298 
	C429.356903,46.783085 435.332428,55.000126 441.612213,63.881546 
z"/>
<path fill="#050505" opacity="1.000000" stroke="none" 
	d="
M487.468658,449.000000 
	C483.320221,444.694916 480.282990,440.273407 480.706146,434.069885 
	C481.194794,426.906128 485.783051,421.079437 492.918640,419.779572 
	C495.025696,419.395691 497.206085,419.280334 499.353577,419.273621 
	C516.129150,419.221008 532.904846,419.214355 549.680542,419.225281 
	C551.668152,419.226593 553.661560,419.354706 555.642212,419.534729 
	C562.342102,420.143829 567.604431,423.271423 569.686523,429.734558 
	C571.896973,436.596283 571.122620,443.247314 565.030212,448.654724 
	C539.312439,449.000000 513.624878,449.000000 487.468658,449.000000 
z"/>
<path fill="#4D4AD3" opacity="1.000000" stroke="none" 
	d="
M514.000000,1.000000 
	C521.687561,1.000000 529.375183,1.000000 537.533936,1.422770 
	C538.678162,5.747326 539.884033,9.642534 539.932312,13.552032 
	C540.145752,30.838310 540.062927,48.128826 540.003906,65.417526 
	C539.987061,70.368568 535.245300,76.769310 530.759460,77.854759 
	C526.538086,78.876221 519.268494,77.659225 516.896545,72.619415 
	C515.068787,68.735847 513.188843,64.378250 513.174072,60.224854 
	C513.103638,40.484470 513.664124,20.741835 514.000000,1.000000 
z"/>
<path fill="#6966B8" opacity="1.000000" stroke="none" 
	d="
M513.750000,1.000000 
	C513.664124,20.741835 513.103638,40.484470 513.174072,60.224854 
	C513.188843,64.378250 515.068787,68.735847 516.896545,72.619415 
	C519.268494,77.659225 526.538086,78.876221 530.759460,77.854759 
	C535.245300,76.769310 539.987061,70.368568 540.003906,65.417526 
	C540.062927,48.128826 540.145752,30.838310 539.932312,13.552032 
	C539.884033,9.642534 538.678162,5.747326 538.002563,1.422770 
	C538.000000,1.000000 538.500000,1.000000 538.750000,1.000001 
	C539.846802,4.702484 541.357300,8.392471 541.427307,12.109577 
	C541.755920,29.564884 541.876038,47.029610 541.693542,64.487022 
	C541.580750,75.278023 534.423828,81.221291 524.144470,79.773834 
	C518.128479,78.926727 513.473145,75.130241 512.385437,69.152573 
	C511.500092,64.286758 511.337311,59.255386 511.227142,54.289150 
	C510.924866,40.661812 510.646790,27.028885 510.744324,13.400927 
	C510.772156,9.508093 512.114685,5.624669 512.927124,1.368465 
	C513.000000,1.000000 513.500000,1.000000 513.750000,1.000000 
z"/>
<path fill="#EDEDED" opacity="1.000000" stroke="none" 
	d="
M1023.946411,163.009583 
	C1024.122070,163.006088 1024.297607,163.002609 1024.736572,162.999573 
	C1025.000000,171.687561 1025.000000,180.375137 1025.000000,189.531342 
	C1024.814331,189.999130 1024.628784,189.998276 1024.138550,189.523529 
	C1023.871399,180.369644 1023.908875,171.689606 1023.946411,163.009583 
z"/>
<path fill="#040404" opacity="1.000000" stroke="none" 
	d="
M532.985535,199.002411 
	C531.892944,210.487213 529.323242,221.251526 517.815857,228.007538 
	C533.813538,236.694458 536.188721,251.056717 535.901062,266.373566 
	C535.648621,279.812653 535.682617,293.351227 533.989441,306.641907 
	C532.388611,319.207092 523.515015,327.300720 511.340057,328.724915 
	C496.032013,330.515564 480.457153,330.158691 464.992371,330.386292 
	C460.918579,330.446259 458.846252,327.489624 458.827301,323.359711 
	C458.787567,314.697845 458.722717,306.035858 458.730621,297.373993 
	C458.760193,264.891846 458.814880,232.409714 459.395935,199.465820 
	C468.587677,198.993820 477.243683,198.983582 485.948029,199.444458 
	C485.976105,204.235901 486.084259,208.561981 485.891174,212.874557 
	C485.758728,215.832031 486.739502,217.154999 489.834442,217.026337 
	C493.816071,216.860825 497.816223,216.832687 501.795715,217.017960 
	C505.270172,217.179718 506.564941,215.672897 506.554413,212.327637 
	C506.540283,207.847641 506.782623,203.366852 507.388794,198.881836 
	C516.237000,198.918976 524.611267,198.960693 532.985535,199.002411 
M505.409454,305.068634 
	C506.605560,303.895905 508.831909,302.733368 508.843658,301.548889 
	C509.028900,282.887970 509.001465,264.223297 508.745483,245.563232 
	C508.726868,244.204178 506.645416,241.792099 505.405853,241.713318 
	C499.158600,241.316193 492.872467,241.530930 486.741608,241.530930 
	C486.450562,242.104034 486.177795,242.391296 486.175934,242.680298 
	C486.047516,262.670807 485.881561,282.661774 485.992004,302.651184 
	C485.998108,303.752258 488.297333,305.747742 489.562317,305.774750 
	C494.538879,305.881073 499.528656,305.366180 505.409454,305.068634 
z"/>
<path fill="#040404" opacity="1.000000" stroke="none" 
	d="
M431.026855,200.874710 
	C431.027618,233.194443 431.259308,265.517273 430.829376,297.831268 
	C430.745972,304.100677 429.077087,310.806427 426.390320,316.483002 
	C421.642517,326.514191 411.953369,329.594269 401.109436,330.664185 
	C400.134674,330.669678 399.669983,330.831787 399.205261,330.993896 
	C386.716919,331.011292 374.228546,331.028687 361.078674,330.800964 
	C359.895782,330.621887 359.374420,330.687958 358.853027,330.754028 
	C354.138397,329.641449 353.674164,325.830963 353.462280,321.142090 
	C353.632660,284.987793 353.619934,249.666794 353.613098,214.345810 
	C353.612335,210.347000 353.697937,206.347443 353.641876,202.349655 
	C353.607361,199.885590 354.471283,198.731033 357.146606,198.803650 
	C364.967102,199.015884 372.792755,199.039337 380.676453,199.594727 
	C380.783203,202.048828 380.872650,204.045029 380.870270,206.041122 
	C380.832275,237.663010 380.861145,269.285431 380.640869,300.906067 
	C380.611633,305.101776 381.850555,306.557617 385.964813,306.262665 
	C389.939880,305.977722 393.964996,305.940948 397.939148,306.215210 
	C402.204956,306.509583 403.355408,304.700897 403.333344,300.666138 
	C403.165680,270.044464 403.148621,239.421783 403.150635,208.799423 
	C403.150879,205.156525 403.548828,201.513672 404.044037,198.073914 
	C405.202942,198.294189 406.080200,198.311325 407.334106,198.533203 
	C408.818176,198.628113 409.925659,198.518280 411.408142,198.565140 
	C412.842468,198.624466 413.901764,198.527084 415.395599,198.611984 
	C419.559998,198.686066 423.289917,198.577866 427.335815,198.594513 
	C428.090729,198.642090 428.529663,198.564850 429.190674,198.722198 
	C429.950806,199.596085 430.488831,200.235397 431.026855,200.874710 
z"/>
<path fill="#030304" opacity="1.000000" stroke="none" 
	d="
M562.960144,281.177368 
	C562.949219,255.375305 562.938293,229.573242 563.161011,202.997711 
	C564.644897,201.113098 565.870361,199.076584 567.149353,199.042358 
	C574.917114,198.834579 582.697083,199.083054 590.547852,199.630920 
	C590.663696,215.031921 590.728333,229.981171 590.739502,244.930435 
	C590.753418,263.535309 590.767517,282.140411 590.674500,300.744904 
	C590.655945,304.453766 591.380981,306.838043 595.871704,306.553589 
	C600.837952,306.239044 605.832031,306.363251 611.084595,306.510925 
	C612.254211,306.282318 613.153320,305.839142 614.300781,305.029907 
	C614.638733,302.678833 614.806702,300.693756 614.806030,298.708771 
	C614.795227,265.462494 614.763245,232.216202 615.219360,198.920700 
	C620.344299,198.883362 624.985779,198.910477 629.627258,198.904160 
	C641.316040,198.888260 641.287109,198.882584 641.443054,210.609436 
	C641.590210,221.678055 641.807190,232.745728 641.993530,243.813828 
	C642.000427,253.284805 642.007324,262.755798 641.791870,273.028748 
	C641.643799,283.495300 641.718018,293.159882 641.792236,302.824463 
	C639.639771,323.274017 627.232849,329.400269 610.671021,332.100616 
	C600.292480,333.792816 590.099670,332.115936 580.313232,328.384979 
	C574.160217,326.039215 569.619507,321.777130 566.828308,315.055359 
	C566.161865,312.981903 565.533875,311.572266 564.905884,310.162598 
	C564.783447,309.413696 564.660950,308.664795 564.622925,307.294495 
	C564.469238,306.165680 564.231079,305.658325 563.992920,305.150970 
	C563.831726,303.106018 563.670593,301.061096 563.646118,298.147491 
	C563.508606,291.911682 563.234375,286.544525 562.960144,281.177368 
z"/>
<path fill="#050506" opacity="1.000000" stroke="none" 
	d="
M980.926453,198.836639 
	C991.631287,218.177353 1002.494385,237.432709 1012.984802,256.889008 
	C1019.874084,269.666473 1023.470093,283.366150 1023.356140,298.042877 
	C1023.193848,318.935028 1011.854675,331.672577 990.807922,332.378082 
	C982.169495,332.667664 973.225586,331.149139 964.809631,328.958649 
	C953.761536,326.083099 946.992798,316.089111 946.812988,304.721313 
	C946.670837,295.734497 946.709045,286.744965 946.628723,277.756989 
	C946.586670,273.046844 949.132568,270.592529 953.559631,270.271454 
	C957.700500,269.971191 961.890686,269.962830 966.035767,270.212860 
	C970.492310,270.481628 973.058533,273.010468 973.088928,277.635345 
	C973.138184,285.126343 973.485107,292.643127 972.984253,300.100555 
	C972.629517,305.384003 974.560486,306.913086 979.453857,306.501984 
	C983.425049,306.168396 987.442993,306.200134 991.431946,306.328491 
	C994.851257,306.438507 996.033691,305.197235 995.957520,301.659363 
	C995.680115,288.765564 992.533203,276.718079 986.331177,265.417938 
	C978.576233,251.288589 970.778259,237.180054 963.257385,222.926117 
	C959.460388,215.729904 956.233154,208.233002 952.960449,200.184662 
	C962.423950,199.277054 971.675232,199.056854 980.926453,198.836639 
z"/>
<path fill="#040404" opacity="1.000000" stroke="none" 
	d="
M867.348511,198.950516 
	C867.357727,232.100647 867.385986,265.250763 867.362366,298.400909 
	C867.356628,306.368439 867.413330,306.525024 875.331421,306.544434 
	C878.662781,306.552582 882.011475,306.240356 885.321533,306.487183 
	C889.613159,306.807220 891.235352,305.362122 890.993347,300.847290 
	C890.610535,293.703552 890.782837,286.523621 890.895142,279.361725 
	C890.992920,273.128235 893.169006,271.002136 899.397339,270.849731 
	C903.225952,270.756042 907.063171,270.770813 910.889954,270.913574 
	C914.896423,271.063049 917.995667,273.112366 917.892212,277.199860 
	C917.619934,287.956085 917.246948,298.749969 916.040100,309.430084 
	C915.004272,318.597382 909.146729,324.676636 900.763184,328.313477 
	C886.003845,334.716125 871.162415,334.113129 856.574219,328.102112 
	C845.145081,323.392761 841.418457,313.420258 840.581543,301.208069 
	C840.464783,298.692688 840.227600,296.954865 839.990356,295.217041 
	C839.985840,263.749969 839.981323,232.282913 840.381775,200.171906 
	C849.640686,199.335480 858.494629,199.143005 867.348511,198.950516 
z"/>
<path fill="#4A48D2" opacity="1.000000" stroke="none" 
	d="
M92.913971,143.065674 
	C93.277702,142.981949 93.641434,142.898224 94.662628,142.830170 
	C103.300682,136.509430 111.807854,133.374161 122.571152,133.583160 
	C136.589752,133.855331 147.461563,145.193146 147.943756,158.953873 
	C148.310974,169.433624 147.836990,179.941528 148.132904,190.425751 
	C148.248795,194.531097 146.208832,195.814163 142.890656,195.969574 
	C138.569870,196.171936 134.226608,195.885712 129.904755,196.076218 
	C126.228104,196.238297 124.871193,194.752319 124.927299,191.091629 
	C125.077858,181.267761 125.001160,171.439941 124.952919,161.613983 
	C124.945724,160.147537 124.974739,158.496597 124.348099,157.252945 
	C122.640732,153.864441 108.509872,153.979721 106.202637,157.278290 
	C106.202637,157.278290 106.159958,157.159439 105.946274,157.197678 
	C105.479881,157.491135 105.227180,157.746368 104.710724,158.254639 
	C104.622704,160.346375 104.798424,162.185089 104.969284,164.490936 
	C104.959122,174.279968 104.953812,183.601852 104.631363,193.123642 
	C101.492599,197.852722 96.972534,195.370605 93.209404,196.028381 
	C91.233429,196.373779 88.305397,194.757233 87.601105,198.602646 
	C86.890518,198.645599 86.478783,198.585861 85.943161,198.206177 
	C84.221397,197.578476 82.623528,197.270721 81.014214,196.496735 
	C80.990509,184.374313 80.897125,172.717346 81.009140,161.062347 
	C81.049355,156.878265 79.459587,154.814011 75.143906,154.999847 
	C72.318352,155.121521 69.483032,154.996521 66.652687,155.031143 
	C60.892666,155.101608 60.054562,155.932938 60.039761,161.772842 
	C60.014439,171.763870 59.948246,181.756363 60.095406,191.745331 
	C60.142529,194.944016 59.145630,196.242126 55.815750,196.100815 
	C50.662865,195.882111 45.481712,196.227173 40.341442,195.891159 
	C39.165436,195.814270 37.150997,193.948166 37.138084,192.885880 
	C36.943832,176.902878 36.622601,160.902679 37.180641,144.936218 
	C37.519810,135.232132 39.698811,134.043243 49.757767,133.918121 
	C55.385529,133.848129 61.060440,132.760269 66.620171,133.233841 
	C73.732964,133.839676 81.252045,133.761154 87.073700,139.296509 
	C88.723526,140.865189 90.951271,141.826065 92.913971,143.065674 
z"/>
<path fill="#050505" opacity="1.000000" stroke="none" 
	d="
M474.029785,396.788574 
	C471.205902,396.759125 468.873627,396.788818 466.546417,396.694702 
	C456.150238,396.274170 450.732269,390.744537 450.887482,380.761749 
	C451.022278,372.090790 456.921844,366.838318 466.804138,366.824280 
	C506.083496,366.768402 545.363037,366.716187 584.642334,366.777618 
	C596.473083,366.796143 603.369324,375.786560 600.199890,386.642365 
	C598.348511,392.983582 593.306885,396.683228 585.870239,396.701385 
	C550.918579,396.786743 515.966797,396.782410 481.015015,396.808411 
	C478.851257,396.810028 476.687500,396.796967 474.029785,396.788574 
z"/>
<path fill="#050505" opacity="1.000000" stroke="none" 
	d="
M213.955841,198.913391 
	C214.002975,222.903610 214.067245,246.893799 214.089188,270.884033 
	C214.098495,281.048126 214.079239,291.213104 213.939392,301.375854 
	C213.902069,304.089203 214.617447,305.299164 217.498993,306.242493 
	C219.745270,306.977875 222.587555,309.564636 222.930588,311.689392 
	C223.680923,316.336670 223.600235,321.336517 222.639145,325.937500 
	C222.237747,327.858978 218.782242,330.398621 216.627884,330.485443 
	C205.983780,330.914246 195.309570,330.678162 184.647751,330.539673 
	C181.031204,330.492706 178.508575,328.658325 178.382080,324.814178 
	C178.234802,320.337891 177.998749,315.777344 178.706467,311.399719 
	C179.023148,309.440979 181.373779,306.567780 183.102325,306.333923 
	C186.950180,305.813263 187.144592,303.841400 187.121872,300.896301 
	C186.994629,284.401062 186.914337,267.905182 186.901672,251.409454 
	C186.888519,234.247910 186.970459,217.086288 187.548431,199.462219 
	C196.709305,198.970978 205.332581,198.942184 213.955841,198.913391 
z"/>
<path fill="#030304" opacity="1.000000" stroke="none" 
	d="
M811.486877,327.174744 
	C810.281799,328.225342 809.076782,329.275940 807.074341,330.254120 
	C794.481934,330.239136 782.687012,330.296631 770.892029,330.354126 
	C769.837036,329.516327 768.781982,328.678558 767.702576,327.246704 
	C767.424377,326.128723 767.170593,325.604858 766.916809,325.080994 
	C766.916199,320.674591 766.915649,316.268188 767.214661,311.242676 
	C767.581787,310.056702 767.649414,309.489899 767.716980,308.923065 
	C768.542053,308.192810 769.367188,307.462585 770.760132,306.698608 
	C771.858643,306.438080 772.389404,306.211304 772.920105,305.984528 
	C773.371460,305.963013 773.822754,305.941498 774.968628,305.808472 
	C775.770203,302.828125 775.877258,299.959351 775.984375,297.090546 
	C775.912720,264.716370 775.841064,232.342194 776.277954,199.400665 
	C785.594055,198.894119 794.401489,198.954910 803.208984,199.015717 
	C803.127563,232.391968 803.046204,265.768219 802.747070,299.888916 
	C802.033875,304.226044 802.297424,307.199890 807.214294,306.380341 
	C812.409424,308.554779 812.360535,313.189819 812.437561,317.698608 
	C812.474182,319.843811 812.221863,321.993927 811.840637,324.807861 
	C811.549500,326.040863 811.518188,326.607819 811.486877,327.174744 
z"/>
<path fill="#050505" opacity="1.000000" stroke="none" 
	d="
M718.925659,203.792206 
	C718.931702,241.369537 718.945679,278.946869 718.924866,316.524200 
	C718.923584,318.839233 718.704346,321.159363 718.489136,323.468048 
	C718.015015,328.554047 715.020386,330.695557 710.088013,330.602051 
	C706.431702,330.532684 702.773499,330.567108 699.116089,330.554901 
	C694.433899,330.539276 692.026001,327.986938 691.761047,323.515320 
	C691.456360,318.373749 691.448059,313.214630 691.507812,307.267822 
	C691.477234,304.720367 691.249756,302.968262 691.022217,301.216187 
	C691.012085,270.726074 691.001953,240.235947 691.249512,208.973633 
	C691.585388,206.064728 691.458313,203.891403 691.829895,201.806976 
	C692.011169,200.789932 693.103333,199.150085 693.815247,199.133087 
	C701.809631,198.942093 709.810181,199.012314 717.703247,199.012314 
	C718.207092,200.982285 718.566345,202.387238 718.925659,203.792206 
z"/>
<path fill="#030303" opacity="1.000000" stroke="none" 
	d="
M298.937073,321.086578 
	C298.965027,280.745148 298.992981,240.403702 299.542908,199.585144 
	C308.789703,199.084015 317.514465,199.059998 326.239258,199.035980 
	C326.348450,200.695923 326.554657,202.356003 326.552551,204.015808 
	C326.503906,242.671921 326.452850,281.328064 326.339294,319.984009 
	C326.325592,324.655579 326.644531,329.736023 319.231567,330.438782 
	C314.514771,330.363007 310.630402,330.485107 306.746033,330.607239 
	C303.058807,330.383392 300.572021,328.653564 299.694885,324.276611 
	C299.469147,322.761169 299.203125,321.923889 298.937073,321.086578 
z"/>
<path fill="#010102" opacity="1.000000" stroke="none" 
	d="
M276.185303,198.867279 
	C276.300903,225.821289 276.476654,252.775223 276.508331,279.729340 
	C276.525726,294.533112 276.300354,309.337158 275.903168,324.816345 
	C275.563019,326.060608 275.504120,326.629608 275.445251,327.198639 
	C273.812164,328.402863 272.179047,329.607056 269.861633,330.641357 
	C264.378845,330.560394 259.580414,330.649323 254.781967,330.738281 
	C253.080307,328.735504 250.446472,326.962494 249.883606,324.679016 
	C248.907379,320.718567 249.009109,316.442078 249.012436,312.298401 
	C249.042236,275.209717 249.149384,238.121109 249.693573,200.425110 
	C258.830688,199.500931 267.507996,199.184097 276.185303,198.867279 
z"/>
<path fill="#040405" opacity="1.000000" stroke="none" 
	d="
M86.067047,198.526138 
	C86.478783,198.585861 86.890518,198.645599 88.051682,198.775925 
	C94.470268,198.898697 100.139427,198.950882 105.808586,199.003052 
	C105.888161,226.758011 105.976974,254.512939 106.043205,282.267914 
	C106.074142,295.232697 106.128525,308.198059 106.041191,321.162262 
	C105.994911,328.031067 103.666649,330.213776 96.626778,330.456390 
	C94.301750,330.536530 91.973236,330.563354 89.646805,330.546509 
	C82.127510,330.492157 80.730278,329.321594 79.413834,321.169159 
	C79.519218,318.167236 79.585190,316.009583 79.587250,313.851898 
	C79.621857,277.637115 79.625969,241.422256 79.731773,205.207687 
	C79.738243,202.990707 80.535126,200.776016 81.371109,198.723038 
	C83.207664,198.765915 84.637360,198.646027 86.067047,198.526138 
z"/>
<path fill="#010102" opacity="1.000000" stroke="none" 
	d="
M123.747498,323.884857 
	C123.566338,323.117035 123.385170,322.349243 123.435280,320.886780 
	C123.666550,280.112518 123.666550,240.032898 123.666550,198.646759 
	C133.146393,199.113174 141.668350,199.532471 150.190308,199.951767 
	C150.207382,240.365417 150.250015,280.779114 150.216675,321.192688 
	C150.211044,328.024384 148.133514,330.106628 141.360596,330.442108 
	C138.043564,330.606445 134.628601,330.920197 131.414139,330.324066 
	C129.042175,329.884216 126.923073,328.080811 124.683807,326.298645 
	C124.366707,325.103149 124.057106,324.494019 123.747498,323.884857 
z"/>
<path fill="#010102" opacity="1.000000" stroke="none" 
	d="
M61.886909,323.837097 
	C61.054867,328.508453 57.985218,330.365540 53.534943,330.397308 
	C49.618298,330.425293 45.701096,330.374146 41.162914,330.028931 
	C40.001209,329.614044 39.460728,329.528198 38.920242,329.442383 
	C37.699577,327.469635 36.478912,325.496857 35.470543,322.859253 
	C35.707790,321.198029 35.754230,320.201630 35.754616,319.205231 
	C35.769287,281.252472 35.866356,243.299332 35.684433,205.347504 
	C35.660892,200.436142 37.175663,198.997726 41.912483,199.349106 
	C46.194370,199.666733 50.541355,198.979523 54.858059,199.004837 
	C57.274811,199.018997 59.688351,199.580704 62.103340,199.895691 
	C62.102135,240.338882 62.100929,280.782074 61.896973,321.817017 
	C61.758446,322.884888 61.822678,323.360992 61.886909,323.837097 
z"/>
<path fill="#4A48D0" opacity="1.000000" stroke="none" 
	d="
M428.968597,198.487595 
	C428.529663,198.564850 428.090729,198.642090 427.305420,198.227875 
	C423.475006,194.947052 416.989532,195.321808 414.961090,198.429703 
	C413.901764,198.527084 412.842468,198.624466 411.386047,198.247009 
	C410.152252,197.226776 409.354553,196.387680 408.461090,196.268875 
	C408.058319,196.215317 407.464569,197.597626 406.957489,198.328461 
	C406.080200,198.311325 405.202942,198.294189 403.884369,197.981079 
	C403.443085,197.685120 403.399567,197.318420 403.771759,197.240356 
	C404.516083,196.857224 405.214294,196.551117 405.213318,196.247253 
	C405.174866,184.091721 405.244263,171.929825 404.777832,159.788788 
	C404.714630,158.143631 402.091187,155.480927 400.364594,155.223312 
	C395.030212,154.427353 389.542236,154.234756 384.141449,154.462112 
	C380.655975,154.608841 378.437531,157.066238 378.483154,160.809677 
	C378.606720,170.950302 378.757782,181.091751 379.049988,191.228485 
	C379.146973,194.593460 377.920227,196.203857 374.470703,196.130920 
	C369.691010,196.029831 364.900787,195.885330 360.129517,196.091995 
	C356.181732,196.262970 354.828583,194.669800 354.933807,190.802704 
	C355.386078,174.181961 355.656921,157.556305 355.998169,140.932510 
	C356.077484,137.067703 357.906433,134.265869 361.825226,134.108078 
	C376.036682,133.535797 390.208954,131.365799 404.471436,134.752731 
	C415.084747,137.273102 422.134644,143.107727 426.235962,153.031952 
	C427.111542,155.150696 428.755249,156.952011 430.045105,158.899567 
	C430.045105,158.899567 430.109924,158.958344 430.076355,159.086517 
	C430.042816,159.214676 430.100769,159.570709 430.100769,159.570709 
	C430.326050,160.735031 430.551300,161.899368 430.361694,163.652954 
	C429.637695,165.787521 429.028015,167.340942 429.069519,168.876755 
	C429.295654,177.249084 429.682007,185.617081 429.995605,194.328110 
	C429.641479,195.942291 429.305054,197.214951 428.968597,198.487595 
z"/>
<path fill="#4B48D2" opacity="1.000000" stroke="none" 
	d="
M1021.583313,155.005981 
	C1021.839844,155.378357 1022.096313,155.750748 1022.043457,156.705017 
	C1021.827698,164.556458 1021.984619,171.825836 1022.001831,179.095551 
	C1022.036987,193.936859 1021.424744,194.416122 1006.565125,194.065109 
	C1002.398987,193.966705 999.546509,192.298538 999.299561,188.210892 
	C998.755554,179.206421 998.497070,170.171021 998.550171,161.150757 
	C998.572083,157.434799 997.076477,154.330551 993.856018,154.386719 
	C988.053345,154.487900 982.216003,154.493591 976.478027,155.214859 
	C974.843628,155.420303 972.213318,157.979507 972.235840,159.425201 
	C972.384338,168.967087 970.337036,178.741898 974.768066,187.951935 
	C975.858826,190.219055 976.197144,192.848145 977.080566,196.027740 
	C969.912231,196.027740 963.449036,195.867081 956.998901,196.088455 
	C953.176453,196.219620 951.604370,194.411743 950.989014,190.974014 
	C950.172729,186.414124 948.913330,181.919006 948.334595,177.334167 
	C947.158081,168.013779 947.310791,158.519882 951.336365,150.004288 
	C955.435608,141.332809 963.569275,136.730072 972.574768,134.098846 
	C980.475403,131.790451 988.365601,132.155014 996.544678,133.733643 
	C1002.704285,134.922470 1008.069031,136.920456 1012.051758,141.434204 
	C1015.686890,145.554062 1018.440918,150.451340 1021.583313,155.005981 
z"/>
<path fill="#4B49D1" opacity="1.000000" stroke="none" 
	d="
M676.043274,156.862427 
	C675.580811,156.873367 675.118347,156.884308 674.266724,156.442780 
	C668.780579,152.345734 670.002380,146.934753 669.989807,141.901901 
	C669.974060,135.608566 671.646545,133.970871 678.002258,133.965805 
	C695.668152,133.951706 713.334045,133.960434 730.999939,133.968094 
	C738.390686,133.971298 741.118835,136.724213 740.949402,144.228165 
	C740.904907,146.194489 740.281677,148.140656 740.081299,150.112030 
	C739.641479,154.440414 737.128967,156.125900 732.992920,156.026230 
	C729.828308,155.949966 726.649658,156.180618 723.496216,155.978790 
	C718.779907,155.676941 716.863037,157.642960 716.965088,162.409821 
	C717.164917,171.738403 716.983704,181.074600 717.035950,190.407211 
	C717.055359,193.869934 716.131531,196.200745 712.056519,196.229660 
	C708.007019,196.258392 703.925171,197.040497 699.919434,196.719330 
	C693.483704,196.203323 692.998779,195.333176 692.989136,188.468185 
	C692.977905,180.468552 693.051697,172.467880 692.934937,164.469894 
	C692.901428,162.178360 692.511780,159.848145 691.926758,157.630280 
	C691.695557,156.753922 690.446289,155.465775 689.728943,155.508682 
	C685.156433,155.782211 680.602966,156.374863 676.043274,156.862427 
z"/>
<path fill="#504CCF" opacity="1.000000" stroke="none" 
	d="
M605.726929,76.718643 
	C601.268311,83.584953 596.853699,89.771477 587.598022,89.044121 
	C576.087341,88.139580 569.401978,76.787804 575.455505,67.082352 
	C585.395569,51.145508 595.963928,35.599007 606.350464,19.943022 
	C609.363220,15.401762 613.509155,12.692289 619.234924,12.661432 
	C630.950378,12.598296 638.149902,23.864773 632.553650,34.236740 
	C629.010925,40.802628 624.572937,46.883701 620.570679,53.203865 
	C615.675476,60.934036 610.816101,68.686882 605.726929,76.718643 
z"/>
<path fill="#504CCE" opacity="1.000000" stroke="none" 
	d="
M441.399109,63.590630 
	C435.332428,55.000126 429.356903,46.783085 423.664673,38.374298 
	C419.273529,31.887537 419.345795,25.902164 423.368652,20.815454 
	C427.874756,15.117700 435.421448,12.563767 441.592072,15.221893 
	C444.052612,16.281832 446.502289,18.220621 448.052582,20.402004 
	C458.373199,34.923668 468.568024,49.538681 478.558472,64.289490 
	C484.347046,72.836327 483.638031,79.860886 477.070557,85.237312 
	C470.760559,90.402946 461.629150,90.233940 456.365479,84.001007 
	C451.012360,77.662201 446.495361,70.617264 441.399109,63.590630 
z"/>
<path fill="#4E4ACE" opacity="1.000000" stroke="none" 
	d="
M804.031555,157.801865 
	C803.976868,158.005432 803.922119,158.209015 803.391846,158.849976 
	C802.640930,161.033890 802.142273,162.778549 802.127563,164.527298 
	C802.050842,173.664169 801.973022,182.804626 802.158386,191.938492 
	C802.238159,195.866837 800.719788,197.311890 796.867126,197.129715 
	C792.391418,196.918137 787.898071,197.076111 783.412354,197.084747 
	C779.036743,197.093185 776.712219,195.455338 776.846924,190.542252 
	C777.115540,180.747330 777.051331,170.937622 776.831604,161.140594 
	C776.795349,159.526077 775.621582,156.971375 774.369873,156.518066 
	C769.135864,154.622543 767.815002,150.648102 768.033203,145.891968 
	C768.220886,141.801117 769.010986,137.737915 769.534729,133.662491 
	C769.534729,133.662491 769.617859,133.602493 770.111511,133.699432 
	C781.457642,133.829163 792.311279,133.960999 803.162048,133.839218 
	C806.790588,133.798508 808.809631,135.259644 809.445251,138.709412 
	C810.779541,145.951126 811.553284,153.060089 804.031555,157.801865 
z"/>
<path fill="#4D4BCE" opacity="1.000000" stroke="none" 
	d="
M215.066055,156.981812 
	C215.066055,156.981812 214.864304,157.221924 214.325439,157.309448 
	C213.190704,159.551086 212.125381,161.695496 212.080643,163.861023 
	C211.891632,173.007782 212.150833,182.164993 211.886765,191.307999 
	C211.834900,193.104294 210.361755,196.250290 209.251312,196.386475 
	C204.230331,197.002274 199.089462,197.027435 194.020645,196.745667 
	C189.845474,196.513565 188.245621,193.693924 188.247818,189.588684 
	C188.253235,179.510864 188.113678,169.431870 187.872894,159.357147 
	C187.854233,158.575989 186.589142,157.824600 185.903381,157.059372 
	C185.903381,157.059372 185.982407,157.013885 185.924103,156.699081 
	C180.553955,153.719101 179.137360,149.266861 179.975555,143.719681 
	C180.147339,142.582916 179.968353,141.397598 180.028000,140.238617 
	C180.229156,136.329865 183.206894,133.284546 187.022263,133.345749 
	C196.622253,133.499725 206.228683,133.622681 215.810471,134.154922 
	C217.301071,134.237732 219.490738,136.150055 219.965836,137.655426 
	C222.275375,144.973511 221.805191,151.841156 215.066055,156.981812 
z"/>
<path fill="#58569F" opacity="1.000000" stroke="none" 
	d="
M62.281212,199.608368 
	C59.688351,199.580704 57.274811,199.018997 54.858059,199.004837 
	C50.541355,198.979523 46.194370,199.666733 41.912483,199.349106 
	C37.175663,198.997726 35.660892,200.436142 35.684433,205.347504 
	C35.866356,243.299332 35.769287,281.252472 35.754616,319.205231 
	C35.754230,320.201630 35.707790,321.198029 35.437840,322.494812 
	C34.960766,321.204773 34.527168,319.614471 34.526119,318.023895 
	C34.500919,279.760101 34.463402,241.496140 34.559864,203.232544 
	C34.606815,184.608109 34.903934,165.984161 35.117477,147.360336 
	C35.271835,133.898346 37.537060,131.598511 50.839142,131.618820 
	C58.487820,131.630493 66.149681,131.602249 73.780960,132.030823 
	C81.615944,132.470856 88.301308,135.451401 92.763901,142.769379 
	C90.951271,141.826065 88.723526,140.865189 87.073700,139.296509 
	C81.252045,133.761154 73.732964,133.839676 66.620171,133.233841 
	C61.060440,132.760269 55.385529,133.848129 49.757767,133.918121 
	C39.698811,134.043243 37.519810,135.232132 37.180641,144.936218 
	C36.622601,160.902679 36.943832,176.902878 37.138084,192.885880 
	C37.150997,193.948166 39.165436,195.814270 40.341442,195.891159 
	C45.481712,196.227173 50.662865,195.882111 55.815750,196.100815 
	C59.145630,196.242126 60.142529,194.944016 60.095406,191.745331 
	C59.948246,181.756363 60.014439,171.763870 60.039761,161.772842 
	C60.054562,155.932938 60.892666,155.101608 66.652687,155.031143 
	C69.483032,154.996521 72.318352,155.121521 75.143906,154.999847 
	C79.459587,154.814011 81.049355,156.878265 81.009140,161.062347 
	C80.897125,172.717346 80.990509,184.374313 81.002876,196.764313 
	C80.990059,197.852173 80.977150,198.206223 80.964241,198.560272 
	C80.535126,200.776016 79.738243,202.990707 79.731773,205.207687 
	C79.625969,241.422256 79.621857,277.637115 79.587250,313.851898 
	C79.585190,316.009583 79.519218,318.167236 79.330643,320.775879 
	C78.934807,319.471527 78.480202,317.716309 78.478889,315.960785 
	C78.450653,278.368683 78.427704,240.776443 78.509956,203.184464 
	C78.539780,189.555252 78.694107,175.921982 79.114220,162.300507 
	C79.243088,158.122360 77.912239,156.763153 73.808411,156.790543 
	C59.782425,156.884155 62.309238,155.707413 62.218674,167.895737 
	C62.140854,178.369675 62.367222,188.845856 62.281212,199.608368 
z"/>
<path fill="#6360A4" opacity="1.000000" stroke="none" 
	d="
M642.185181,243.480896 
	C641.807190,232.745728 641.590210,221.678055 641.443054,210.609436 
	C641.287109,198.882584 641.316040,198.888260 629.627258,198.904160 
	C624.985779,198.910477 620.344299,198.883362 614.995361,198.583725 
	C614.316833,186.492203 614.126465,174.681854 614.479370,162.887772 
	C614.627075,157.951752 612.849121,156.366272 608.180969,156.749634 
	C604.712830,157.034439 601.201416,156.746750 597.711975,156.828827 
	C591.477722,156.975464 590.929810,157.578247 590.862793,163.819168 
	C590.736267,175.605881 590.603271,187.392517 590.473022,199.179184 
	C582.697083,199.083054 574.917114,198.834579 567.149353,199.042358 
	C565.870361,199.076584 564.644897,201.113098 563.168457,202.517212 
	C563.616455,186.436554 562.995544,169.872757 565.363220,153.747787 
	C567.359192,140.154053 579.254395,134.620590 591.571106,131.532333 
	C601.672913,128.999420 611.757324,129.837463 621.557007,133.353287 
	C634.157410,137.873932 641.616272,147.005966 641.928833,160.227966 
	C642.582031,187.856064 642.284058,215.506638 642.185181,243.480896 
M564.993225,163.882401 
	C564.981812,173.034882 565.018921,182.187836 564.931152,191.339584 
	C564.902832,194.295258 565.660339,196.059250 569.081604,196.107803 
	C573.136292,196.165329 577.186646,196.907379 581.236023,196.882553 
	C588.479675,196.838181 589.019043,196.140808 589.022339,188.971298 
	C589.026672,179.652313 589.109619,170.332275 588.990112,161.014847 
	C588.936218,156.814133 590.630249,154.867340 594.916443,155.001419 
	C599.571350,155.147034 604.234436,155.033005 608.893921,155.033844 
	C615.648376,155.035065 615.964294,155.327530 615.978882,162.037292 
	C615.998779,171.189819 616.009338,180.342529 615.972961,189.494949 
	C615.954956,194.027069 617.341614,196.697769 622.667175,196.142883 
	C626.947449,195.696899 631.322998,195.851654 635.634094,196.110199 
	C639.258240,196.327545 640.169373,194.810272 640.114136,191.446671 
	C639.947571,181.298309 640.015076,171.145447 640.053955,160.994583 
	C640.080688,154.025299 636.851135,148.336212 632.687744,143.227524 
	C626.854248,136.069534 618.229858,133.772766 609.772766,132.584808 
	C596.494690,130.719696 584.186829,134.014069 573.670166,142.780807 
	C567.359863,148.041138 566.989075,155.849014 564.993225,163.882401 
z"/>
<path fill="#5B59A9" opacity="1.000000" stroke="none" 
	d="
M430.102783,158.509888 
	C428.755249,156.952011 427.111542,155.150696 426.235962,153.031952 
	C422.134644,143.107727 415.084747,137.273102 404.471436,134.752731 
	C390.208954,131.365799 376.036682,133.535797 361.825226,134.108078 
	C357.906433,134.265869 356.077484,137.067703 355.998169,140.932510 
	C355.656921,157.556305 355.386078,174.181961 354.933807,190.802704 
	C354.828583,194.669800 356.181732,196.262970 360.129517,196.091995 
	C364.900787,195.885330 369.691010,196.029831 374.470703,196.130920 
	C377.920227,196.203857 379.146973,194.593460 379.049988,191.228485 
	C378.757782,181.091751 378.606720,170.950302 378.483154,160.809677 
	C378.437531,157.066238 380.655975,154.608841 384.141449,154.462112 
	C389.542236,154.234756 395.030212,154.427353 400.364594,155.223312 
	C402.091187,155.480927 404.714630,158.143631 404.777832,159.788788 
	C405.244263,171.929825 405.174866,184.091721 405.213318,196.247253 
	C405.214294,196.551117 404.516083,196.857224 403.648041,196.825287 
	C403.098389,185.508682 403.027740,174.529144 402.997192,163.549484 
	C402.978516,156.844193 403.006348,156.832794 396.063324,156.752594 
	C393.068909,156.718002 390.050690,156.976395 387.084381,156.684158 
	C382.403809,156.223022 380.736023,157.766769 380.847992,162.750275 
	C381.120392,174.871246 380.736145,187.006973 380.616364,199.136765 
	C372.792755,199.039337 364.967102,199.015884 357.146606,198.803650 
	C354.471283,198.731033 353.607361,199.885590 353.641876,202.349655 
	C353.697937,206.347443 353.612335,210.347000 353.613098,214.345810 
	C353.619934,249.666794 353.632660,284.987793 353.424469,320.727600 
	C352.970459,319.551636 352.532806,317.957123 352.530640,316.362030 
	C352.479553,278.411926 352.360718,240.461319 352.510406,202.511826 
	C352.585846,183.380508 353.132446,164.250534 353.525848,145.121185 
	C353.764099,133.535553 355.788300,131.593094 367.412231,131.468307 
	C377.229614,131.362915 387.067291,130.827225 396.860260,131.270844 
	C414.788361,132.082947 426.862335,142.105957 430.102783,158.509888 
z"/>
<path fill="#5C59B0" opacity="1.000000" stroke="none" 
	d="
M1021.694458,154.619568 
	C1018.440918,150.451340 1015.686890,145.554062 1012.051758,141.434204 
	C1008.069031,136.920456 1002.704285,134.922470 996.544678,133.733643 
	C988.365601,132.155014 980.475403,131.790451 972.574768,134.098846 
	C963.569275,136.730072 955.435608,141.332809 951.336365,150.004288 
	C947.310791,158.519882 947.158081,168.013779 948.334595,177.334167 
	C948.913330,181.919006 950.172729,186.414124 950.989014,190.974014 
	C951.604370,194.411743 953.176453,196.219620 956.998901,196.088455 
	C963.449036,195.867081 969.912231,196.027740 977.080566,196.027740 
	C976.197144,192.848145 975.858826,190.219055 974.768066,187.951935 
	C970.337036,178.741898 972.384338,168.967087 972.235840,159.425201 
	C972.213318,157.979507 974.843628,155.420303 976.478027,155.214859 
	C982.216003,154.493591 988.053345,154.487900 993.856018,154.386719 
	C997.076477,154.330551 998.572083,157.434799 998.550171,161.150757 
	C998.497070,170.171021 998.755554,179.206421 999.299561,188.210892 
	C999.546509,192.298538 1002.398987,193.966705 1006.565125,194.065109 
	C1021.424744,194.416122 1022.036987,193.936859 1022.001831,179.095551 
	C1021.984619,171.825836 1021.827698,164.556458 1022.047363,157.057999 
	C1022.775818,158.677277 1023.190918,160.525482 1023.776245,162.691635 
	C1023.908875,171.689606 1023.871399,180.369644 1023.860168,189.516907 
	C1022.455261,194.264893 1019.317505,195.815430 1015.009094,195.684616 
	C1011.182617,195.568436 1007.349060,195.681778 1003.522888,195.561020 
	C998.862305,195.413940 996.538086,192.845886 996.505432,188.245590 
	C996.444031,179.586227 996.247498,170.920441 996.507507,162.269363 
	C996.634399,158.046814 995.084656,156.597900 991.033875,156.810715 
	C987.048645,157.020096 983.034302,156.987930 979.048035,156.775055 
	C975.351501,156.577652 974.195190,158.134430 974.027710,161.733536 
	C973.435974,174.446213 975.261597,186.631500 980.933655,198.478455 
	C971.675232,199.056854 962.423950,199.277054 952.850830,199.823715 
	C950.995300,195.675934 948.636963,191.297821 948.101807,186.707169 
	C947.029663,177.510437 946.138611,168.150391 946.669678,158.944122 
	C947.371887,146.772995 955.319336,138.872543 965.882263,134.215408 
	C978.592712,128.611389 991.894287,128.531021 1004.745056,133.939987 
	C1013.654907,137.690247 1020.384094,143.887756 1021.694458,154.619568 
z"/>
<path fill="#58569F" opacity="1.000000" stroke="none" 
	d="
M150.385117,199.603088 
	C141.668350,199.532471 133.146393,199.113174 123.666550,198.646759 
	C123.666550,240.032898 123.666550,280.112518 123.421654,320.491791 
	C122.969795,319.185455 122.583244,317.579559 122.582230,315.973419 
	C122.558914,278.994293 122.538963,242.015076 122.607811,205.036026 
	C122.634468,190.717178 122.782478,176.396637 123.090668,162.081497 
	C123.172592,158.276459 122.144173,156.448196 118.063728,156.790710 
	C114.423729,157.096252 110.752792,157.033417 106.649078,157.205719 
	C108.509872,153.979721 122.640732,153.864441 124.348099,157.252945 
	C124.974739,158.496597 124.945724,160.147537 124.952919,161.613983 
	C125.001160,171.439941 125.077858,181.267761 124.927299,191.091629 
	C124.871193,194.752319 126.228104,196.238297 129.904755,196.076218 
	C134.226608,195.885712 138.569870,196.171936 142.890656,195.969574 
	C146.208832,195.814163 148.248795,194.531097 148.132904,190.425751 
	C147.836990,179.941528 148.310974,169.433624 147.943756,158.953873 
	C147.461563,145.193146 136.589752,133.855331 122.571152,133.583160 
	C111.807854,133.374161 103.300682,136.509430 94.942429,142.816437 
	C101.886581,132.590576 115.720901,128.591049 130.087296,132.517410 
	C141.881577,135.740799 149.303284,144.852478 150.052734,158.827148 
	C150.773849,172.273651 150.446564,185.776367 150.385117,199.603088 
z"/>
<path fill="#615FAB" opacity="1.000000" stroke="none" 
	d="
M867.583435,198.619583 
	C858.494629,199.143005 849.640686,199.335480 840.408691,199.695297 
	C840.530396,185.311371 840.315247,170.689438 841.744507,156.230042 
	C843.007568,143.452042 851.575867,135.826187 863.695557,132.464005 
	C874.515503,129.462402 885.349731,129.554306 896.192200,132.956223 
	C910.603210,137.477814 916.170532,148.425018 917.823120,162.575012 
	C917.278381,162.990723 917.093567,162.992950 916.662842,162.719406 
	C914.927307,157.712372 913.949890,152.735519 911.826965,148.307907 
	C908.708862,141.804825 903.482971,137.008087 896.311829,135.325745 
	C887.016663,133.145172 877.937439,131.506592 867.938416,133.552383 
	C856.588318,135.874588 846.923096,144.340302 843.853760,155.370743 
	C840.423279,167.699280 842.562256,180.195923 842.166870,192.606888 
	C842.132019,193.701828 844.519653,195.744431 845.903809,195.857529 
	C850.868408,196.263138 855.893372,195.857224 860.879944,196.090378 
	C864.834961,196.275269 866.155518,194.673782 866.088562,190.814529 
	C865.915344,180.823227 866.100342,170.826202 866.002563,160.832840 
	C865.964111,156.905792 867.473999,154.904755 871.572693,154.995377 
	C876.330811,155.100616 881.092896,155.016098 885.853271,155.029953 
	C891.356873,155.045990 892.911377,156.545166 892.949768,162.113861 
	C893.005920,170.275528 893.024109,178.438339 892.951294,186.599686 
	C892.913696,190.819366 895.156799,193.555466 898.981995,193.845093 
	C905.377563,194.329346 912.310669,195.649033 917.151611,188.966034 
	C917.634705,188.988831 917.828064,188.995255 918.021484,189.001694 
	C917.752197,193.606827 914.671997,195.297104 910.698364,195.598801 
	C907.053711,195.875534 903.368103,195.796738 899.708862,195.656830 
	C893.497375,195.419373 890.924438,193.084473 890.684021,186.744995 
	C890.374817,178.591354 890.327698,170.412659 890.593079,162.258621 
	C890.727783,158.122406 889.462158,156.504211 885.259399,156.764862 
	C881.112244,157.022034 876.928101,156.887115 872.769958,156.702988 
	C869.027344,156.537262 867.906616,158.218689 867.935364,161.802261 
	C868.032898,173.963303 867.877258,186.126358 867.583435,198.619583 
z"/>
<path fill="#5B59A9" opacity="1.000000" stroke="none" 
	d="
M533.187256,198.649429 
	C524.611267,198.960693 516.237000,198.918976 507.266968,198.510742 
	C506.385742,184.496628 506.100281,170.849014 506.199524,157.316071 
	C507.058044,158.919296 507.887085,160.393280 507.948822,161.898743 
	C508.401123,172.927963 508.699677,183.963501 509.103760,195.351807 
	C510.440582,196.105621 511.720367,196.504639 513.467407,196.930817 
	C517.927612,196.966843 521.920654,196.997040 525.913452,196.979340 
	C531.212158,196.955856 532.194824,195.793121 531.952820,190.490372 
	C531.568726,182.074448 531.405823,173.647903 530.974243,165.234833 
	C530.370667,153.469025 526.608521,143.213211 515.035217,138.166931 
	C509.882538,135.920197 504.068726,134.622391 498.449310,134.149551 
	C490.519287,133.482269 482.491272,133.978561 474.505127,133.980148 
	C462.706482,133.982468 461.900879,133.924515 461.035889,145.736481 
	C459.934235,160.780640 460.222992,175.931641 460.104462,191.038116 
	C460.083313,193.731552 461.022919,196.181702 464.724091,196.208878 
	C469.181061,196.241608 473.635620,196.699112 478.089813,196.994339 
	C482.342102,197.276184 484.109314,195.293518 484.056488,191.059921 
	C483.939026,181.650848 484.031738,172.239182 484.032990,162.828583 
	C484.034027,154.938339 487.675812,152.768753 494.731750,156.408936 
	C486.149963,156.953674 486.204163,156.953888 486.172943,165.087708 
	C486.129608,176.383102 485.995117,187.678131 485.899658,198.973328 
	C477.243683,198.983582 468.587677,198.993820 459.462646,199.001007 
	C458.817657,198.203812 458.488922,197.409775 458.488373,196.615494 
	C458.476135,178.956329 458.375488,161.295822 458.566559,143.638519 
	C458.671692,133.922791 460.947540,131.763824 470.497467,131.961899 
	C482.635834,132.213684 494.857025,131.989899 506.879578,133.380020 
	C520.537231,134.959244 530.432739,144.271576 532.102417,157.988770 
	C533.720215,171.279938 533.052795,184.849274 533.187256,198.649429 
z"/>
<path fill="#5E5B9D" opacity="1.000000" stroke="none" 
	d="
M276.321655,198.422211 
	C267.507996,199.184097 258.830688,199.500931 249.723694,199.964569 
	C249.607895,180.162903 249.748871,160.209290 250.338715,140.268951 
	C250.520950,134.108429 253.574554,131.653275 259.654083,131.539795 
	C270.309204,131.340881 280.982941,130.949677 291.622406,131.347290 
	C314.171997,132.190048 325.558746,143.454346 326.539490,165.867447 
	C327.012238,176.670776 326.650604,187.510605 326.453003,198.684937 
	C317.514465,199.059998 308.789703,199.084015 299.604980,199.129608 
	C299.009430,187.539062 298.887817,175.926743 298.725677,164.315018 
	C298.695618,162.163010 298.501831,160.013290 298.617737,157.672592 
	C299.231750,159.206009 299.918823,160.925598 299.939941,162.653320 
	C300.049866,171.641953 300.021790,180.632828 299.975647,189.622559 
	C299.953857,193.870728 301.562103,196.782288 306.149292,196.819473 
	C310.942230,196.858368 315.738098,196.503372 320.533142,196.333847 
	C324.210632,196.203842 325.217743,194.166870 325.067383,190.728760 
	C324.596161,179.953812 324.545227,169.157562 323.925934,158.392883 
	C323.348206,148.351425 313.320892,136.276917 303.583710,135.257523 
	C289.925659,133.827682 276.135437,133.352081 262.392670,133.175507 
	C255.915375,133.092285 250.972504,136.023087 251.950348,144.428787 
	C252.102554,145.737289 251.892578,147.086639 251.865677,148.417419 
	C251.570175,163.032074 251.202072,177.646347 251.120422,192.262238 
	C251.113480,193.503983 252.966644,195.774139 254.052979,195.835175 
	C260.115417,196.175873 266.218903,196.163269 272.278870,195.791092 
	C273.261627,195.730743 274.863373,193.275558 274.878784,191.912643 
	C275.000977,181.103928 274.682739,170.289612 274.858887,159.482849 
	C274.883087,157.998367 276.796906,155.365234 277.983826,155.278046 
	C283.944183,154.840149 289.955017,155.013931 295.944214,155.147095 
	C296.629913,155.162323 297.291412,156.265381 297.964142,156.864029 
	C292.813263,156.731873 287.660370,156.652283 282.512177,156.451385 
	C278.197815,156.283035 276.281616,157.870544 276.388580,162.561661 
	C276.657715,174.361221 276.465363,186.171280 276.321655,198.422211 
z"/>
<path fill="#615FAB" opacity="1.000000" stroke="none" 
	d="
M676.391602,157.057800 
	C680.602966,156.374863 685.156433,155.782211 689.728943,155.508682 
	C690.446289,155.465775 691.695557,156.753922 691.926758,157.630280 
	C692.511780,159.848145 692.901428,162.178360 692.934937,164.469894 
	C693.051697,172.467880 692.977905,180.468552 692.989136,188.468185 
	C692.998779,195.333176 693.483704,196.203323 699.919434,196.719330 
	C703.925171,197.040497 708.007019,196.258392 712.056519,196.229660 
	C716.131531,196.200745 717.055359,193.869934 717.035950,190.407211 
	C716.983704,181.074600 717.164917,171.738403 716.965088,162.409821 
	C716.863037,157.642960 718.779907,155.676941 723.496216,155.978790 
	C726.649658,156.180618 729.828308,155.949966 732.992920,156.026230 
	C737.128967,156.125900 739.641479,154.440414 740.081299,150.112030 
	C740.281677,148.140656 740.904907,146.194489 740.949402,144.228165 
	C741.118835,136.724213 738.390686,133.971298 730.999939,133.968094 
	C713.334045,133.960434 695.668152,133.951706 678.002258,133.965805 
	C671.646545,133.970871 669.974060,135.608566 669.989807,141.901901 
	C670.002380,146.934753 668.780579,152.345734 673.939331,156.320343 
	C670.171509,157.001999 668.419006,154.792496 668.209106,151.406540 
	C667.952515,147.267044 668.108582,143.100525 668.125427,138.945877 
	C668.144836,134.172546 670.914246,131.835449 675.345581,131.823364 
	C695.138916,131.769409 714.932800,131.883163 734.726318,131.967316 
	C739.609497,131.988068 742.071960,134.656998 742.256897,139.405991 
	C742.399170,143.058655 742.326843,146.720245 742.324158,150.377853 
	C742.320801,154.871597 739.799866,157.123016 735.565796,157.436874 
	C731.757629,157.719162 727.909790,157.892365 724.104858,157.673065 
	C720.172058,157.446411 718.841797,158.910461 718.923035,162.829926 
	C719.202271,176.291794 719.211426,189.759247 719.124573,203.508392 
	C718.566345,202.387238 718.207092,200.982285 717.703247,199.012314 
	C709.810181,199.012314 701.809631,198.942093 693.815247,199.133087 
	C693.103333,199.150085 692.011169,200.789932 691.829895,201.806976 
	C691.458313,203.891403 691.585388,206.064728 691.264648,208.491486 
	C691.024719,204.379211 691.028137,199.976883 691.029968,195.574570 
	C691.034546,184.480652 690.919006,173.384689 691.108887,162.293945 
	C691.173096,158.541428 689.768188,157.269501 686.162292,157.459152 
	C683.033752,157.623703 679.881653,157.339218 676.391602,157.057800 
z"/>
<path fill="#7473A3" opacity="1.000000" stroke="none" 
	d="
M769.215088,133.798004 
	C769.010986,137.737915 768.220886,141.801117 768.033203,145.891968 
	C767.815002,150.648102 769.135864,154.622543 774.369873,156.518066 
	C775.621582,156.971375 776.795349,159.526077 776.831604,161.140594 
	C777.051331,170.937622 777.115540,180.747330 776.846924,190.542252 
	C776.712219,195.455338 779.036743,197.093185 783.412354,197.084747 
	C787.898071,197.076111 792.391418,196.918137 796.867126,197.129715 
	C800.719788,197.311890 802.238159,195.866837 802.158386,191.938492 
	C801.973022,182.804626 802.050842,173.664169 802.127563,164.527298 
	C802.142273,162.778549 802.640930,161.033890 803.257568,159.136292 
	C803.628723,172.105911 803.658752,185.226624 803.448853,198.681519 
	C794.401489,198.954910 785.594055,198.894119 776.316162,198.935715 
	C775.661560,187.921753 775.362610,176.805542 775.351501,165.689011 
	C775.347229,161.428741 775.923218,157.315903 770.089966,156.353317 
	C769.052002,156.182022 767.635742,154.723068 767.431946,153.659836 
	C766.153687,146.988861 764.899902,140.240265 769.215088,133.798004 
z"/>
<path fill="#4D4BA6" opacity="1.000000" stroke="none" 
	d="
M186.064362,157.443726 
	C186.589142,157.824600 187.854233,158.575989 187.872894,159.357147 
	C188.113678,169.431870 188.253235,179.510864 188.247818,189.588684 
	C188.245621,193.693924 189.845474,196.513565 194.020645,196.745667 
	C199.089462,197.027435 204.230331,197.002274 209.251312,196.386475 
	C210.361755,196.250290 211.834900,193.104294 211.886765,191.307999 
	C212.150833,182.164993 211.891632,173.007782 212.080643,163.861023 
	C212.125381,161.695496 213.190704,159.551086 214.176483,157.260452 
	C214.442551,170.757202 214.318710,184.390457 214.075348,198.468552 
	C205.332581,198.942184 196.709305,198.970978 187.629333,198.999573 
	C187.053802,187.402954 186.961090,175.806137 186.792480,164.210449 
	C186.761490,162.080688 186.422272,159.955414 186.064362,157.443726 
z"/>
<path fill="#4D4BA6" opacity="1.000000" stroke="none" 
	d="
M215.443207,157.008575 
	C221.805191,151.841156 222.275375,144.973511 219.965836,137.655426 
	C219.490738,136.150055 217.301071,134.237732 215.810471,134.154922 
	C206.228683,133.622681 196.622253,133.499725 187.022263,133.345749 
	C183.206894,133.284546 180.229156,136.329865 180.028000,140.238617 
	C179.968353,141.397598 180.147339,142.582916 179.975555,143.719681 
	C179.137360,149.266861 180.553955,153.719101 185.902954,156.739471 
	C180.808853,157.116562 178.227020,154.531494 178.287857,149.430786 
	C178.333374,145.614548 178.459579,141.794907 178.703110,137.986588 
	C178.955322,134.042206 181.127594,131.924301 185.142700,131.923004 
	C195.280884,131.919693 205.419083,131.970612 215.557220,131.955612 
	C219.780502,131.949371 222.102524,133.976303 222.406570,138.179092 
	C222.657990,141.654434 222.845337,145.136627 222.961075,148.619095 
	C223.124756,153.544189 220.868668,156.493820 215.443207,157.008575 
z"/>
<path fill="#7473A3" opacity="1.000000" stroke="none" 
	d="
M804.383850,157.750000 
	C811.553284,153.060089 810.779541,145.951126 809.445251,138.709412 
	C808.809631,135.259644 806.790588,133.798508 803.162048,133.839218 
	C792.311279,133.960999 781.457642,133.829163 770.154846,133.672043 
	C771.660583,132.871826 773.604858,131.655441 775.574707,131.612427 
	C784.718262,131.412628 793.869629,131.471710 803.016785,131.569916 
	C809.385559,131.638275 811.667297,133.949036 811.927124,140.332703 
	C812.035278,142.990143 811.833923,145.665100 812.030396,148.313019 
	C812.431030,153.712143 810.171204,156.903671 804.383850,157.750000 
z"/>
<path fill="#7473A3" opacity="1.000000" stroke="none" 
	d="
M771.059387,330.681305 
	C782.687012,330.296631 794.481934,330.239136 806.727539,330.345154 
	C806.302917,330.824585 805.425659,331.420746 804.552979,331.414093 
	C793.443848,331.329254 782.335388,331.157867 771.059387,330.681305 
z"/>
<path fill="#5B59A9" opacity="1.000000" stroke="none" 
	d="
M430.013275,193.986572 
	C429.682007,185.617081 429.295654,177.249084 429.069519,168.876755 
	C429.028015,167.340942 429.637695,165.787521 430.302643,164.097519 
	C430.865906,173.725769 431.073364,183.498734 430.892578,193.639130 
	C430.504303,194.006546 430.013275,193.986572 430.013275,193.986572 
z"/>
<path fill="#6360A4" opacity="1.000000" stroke="none" 
	d="
M642.032959,302.520691 
	C641.718018,293.159882 641.643799,283.495300 641.778320,273.508972 
	C642.082642,282.863800 642.178162,292.540375 642.032959,302.520691 
z"/>
<path fill="#4D4BA6" opacity="1.000000" stroke="none" 
	d="
M105.952713,198.643814 
	C100.139427,198.950882 94.470268,198.898697 88.350540,198.673248 
	C88.305397,194.757233 91.233429,196.373779 93.209404,196.028381 
	C96.972534,195.370605 101.492599,197.852722 104.650520,193.459991 
	C105.279030,194.389725 105.571243,195.183014 105.863457,195.976303 
	C105.941254,196.745728 106.019043,197.515152 105.952713,198.643814 
z"/>
<path fill="#58569F" opacity="1.000000" stroke="none" 
	d="
M105.975830,195.520844 
	C105.571243,195.183014 105.279030,194.389725 104.967667,193.260101 
	C104.953812,183.601852 104.959122,174.279968 104.979012,164.059952 
	C104.987221,161.441757 104.980850,159.721664 104.974487,158.001587 
	C105.227180,157.746368 105.479881,157.491135 106.008965,157.205170 
	C106.219635,169.804749 106.153915,182.435059 105.975830,195.520844 
z"/>
<path fill="#6360A4" opacity="1.000000" stroke="none" 
	d="
M562.741150,281.495544 
	C563.234375,286.544525 563.508606,291.911682 563.596924,297.713196 
	C563.114746,292.702942 562.818420,287.258331 562.741150,281.495544 
z"/>
<path fill="#5E5B9D" opacity="1.000000" stroke="none" 
	d="
M255.031097,330.998718 
	C259.580414,330.649323 264.378845,330.560394 269.501862,330.675415 
	C264.977692,331.005951 260.128967,331.132538 255.031097,330.998718 
z"/>
<path fill="#4D4BA6" opacity="1.000000" stroke="none" 
	d="
M918.115845,188.540924 
	C917.828064,188.995255 917.634705,188.988831 917.179016,188.502930 
	C916.914001,179.680695 916.911377,171.337952 916.908691,162.995193 
	C917.093567,162.992950 917.278381,162.990723 917.740479,162.991470 
	C918.081909,171.356354 918.146057,179.718246 918.115845,188.540924 
z"/>
<path fill="#656494" opacity="1.000000" stroke="none" 
	d="
M306.990234,330.870178 
	C310.630402,330.485107 314.514771,330.363007 318.836975,330.452515 
	C315.261353,330.820465 311.247894,330.976776 306.990234,330.870178 
z"/>
<path fill="#7473A3" opacity="1.000000" stroke="none" 
	d="
M775.745850,297.385284 
	C775.877258,299.959351 775.770203,302.828125 775.294312,305.714111 
	C775.119446,303.047546 775.313416,300.363770 775.745850,297.385284 
z"/>
<path fill="#7473A3" opacity="1.000000" stroke="none" 
	d="
M807.041626,306.086121 
	C802.297424,307.199890 802.033875,304.226044 802.739258,300.363403 
	C803.949707,302.203430 803.030762,305.633759 807.041626,306.086121 
z"/>
<path fill="#615FAB" opacity="1.000000" stroke="none" 
	d="
M690.810852,301.450043 
	C691.249756,302.968262 691.477234,304.720367 691.489563,306.810913 
	C691.049438,305.327515 690.824402,303.505707 690.810852,301.450043 
z"/>
<path fill="#615FAB" opacity="1.000000" stroke="none" 
	d="
M839.775391,295.450592 
	C840.227600,296.954865 840.464783,298.692688 840.516052,300.779724 
	C840.073547,299.314026 839.816956,297.499084 839.775391,295.450592 
z"/>
<path fill="#545291" opacity="1.000000" stroke="none" 
	d="
M429.995605,194.328110 
	C430.013275,193.986572 430.504303,194.006546 430.749817,194.016785 
	C431.116516,196.130707 431.237701,198.234406 431.192871,200.606400 
	C430.488831,200.235397 429.950806,199.596085 429.190674,198.722198 
	C429.305054,197.214951 429.641479,195.942291 429.995605,194.328110 
z"/>
<path fill="#6360A4" opacity="1.000000" stroke="none" 
	d="
M564.726685,310.368774 
	C565.533875,311.572266 566.161865,312.981903 566.703125,314.717224 
	C565.926636,313.553558 565.237061,312.064240 564.726685,310.368774 
z"/>
<path fill="#656494" opacity="1.000000" stroke="none" 
	d="
M298.742920,321.269775 
	C299.203125,321.923889 299.469147,322.761169 299.604279,323.915833 
	C299.165192,323.306458 298.856995,322.379700 298.742920,321.269775 
z"/>
<path fill="#58569F" opacity="1.000000" stroke="none" 
	d="
M62.079823,323.758423 
	C61.822678,323.360992 61.758446,322.884888 61.869446,322.296600 
	C62.120697,322.682861 62.196716,323.181305 62.079823,323.758423 
z"/>
<path fill="#58569F" opacity="1.000000" stroke="none" 
	d="
M123.597229,324.116425 
	C124.057106,324.494019 124.366707,325.103149 124.533737,325.938721 
	C124.076431,325.559418 123.761696,324.953705 123.597229,324.116425 
z"/>
<path fill="#656494" opacity="1.000000" stroke="none" 
	d="
M275.682800,327.179199 
	C275.504120,326.629608 275.563019,326.060608 275.842987,325.288025 
	C276.016174,325.776245 275.968292,326.467987 275.682800,327.179199 
z"/>
<path fill="#7473A3" opacity="1.000000" stroke="none" 
	d="
M766.714233,325.208984 
	C767.170593,325.604858 767.424377,326.128723 767.551514,326.932739 
	C767.120422,326.587555 766.815979,325.962250 766.714233,325.208984 
z"/>
<path fill="#7473A3" opacity="1.000000" stroke="none" 
	d="
M811.723572,327.144226 
	C811.518188,326.607819 811.549500,326.040863 811.803589,325.278564 
	C812.004333,325.760010 811.982300,326.436859 811.723572,327.144226 
z"/>
<path fill="#58569F" opacity="1.000000" stroke="none" 
	d="
M38.915100,329.674622 
	C39.460728,329.528198 40.001209,329.614044 40.690742,329.949585 
	C40.196514,330.101837 39.553234,330.004364 38.915100,329.674622 
z"/>
<path fill="#7473A3" opacity="1.000000" stroke="none" 
	d="
M767.468567,308.934082 
	C767.649414,309.489899 767.581787,310.056702 767.258118,310.774170 
	C767.074768,310.264893 767.147461,309.604980 767.468567,308.934082 
z"/>
<path fill="#7473A3" opacity="1.000000" stroke="none" 
	d="
M772.801636,305.778381 
	C772.389404,306.211304 771.858643,306.438080 771.053223,306.534149 
	C771.413452,306.126343 772.048340,305.849274 772.801636,305.778381 
z"/>
<path fill="#5B59A9" opacity="1.000000" stroke="none" 
	d="
M358.914215,330.955200 
	C359.374420,330.687958 359.895782,330.621887 360.596771,330.771332 
	C360.176056,331.043365 359.575714,331.099884 358.914215,330.955200 
z"/>
<path fill="#5B59A9" opacity="1.000000" stroke="none" 
	d="
M399.311829,331.169159 
	C399.669983,330.831787 400.134674,330.669678 400.697449,330.693024 
	C400.336487,331.033783 399.877441,331.189087 399.311829,331.169159 
z"/>
<path fill="#6360A4" opacity="1.000000" stroke="none" 
	d="
M563.797302,305.255493 
	C564.231079,305.658325 564.469238,306.165680 564.539673,306.924286 
	C564.115234,306.570343 563.858459,305.965149 563.797302,305.255493 
z"/>
<path fill="#5B59A9" opacity="1.000000" stroke="none" 
	d="
M430.195343,159.499664 
	C430.100769,159.570709 430.042816,159.214676 430.059692,159.126953 
	C430.076569,159.039215 430.289917,159.428619 430.195343,159.499664 
z"/>
<path fill="#EDEDED" opacity="1.000000" stroke="none" 
	d="
M504.961487,305.075256 
	C499.528656,305.366180 494.538879,305.881073 489.562317,305.774750 
	C488.297333,305.747742 485.998108,303.752258 485.992004,302.651184 
	C485.881561,282.661774 486.047516,262.670807 486.175934,242.680298 
	C486.177795,242.391296 486.450562,242.104034 486.741608,241.530930 
	C492.872467,241.530930 499.158600,241.316193 505.405853,241.713318 
	C506.645416,241.792099 508.726868,244.204178 508.745483,245.563232 
	C509.001465,264.223297 509.028900,282.887970 508.843658,301.548889 
	C508.831909,302.733368 506.605560,303.895905 504.961487,305.075256 
z"/>
<path fill="#EEEEF2" opacity="1.000000" stroke="none" 
	d="
M485.948029,199.444458 
	C485.995117,187.678131 486.129608,176.383102 486.172943,165.087708 
	C486.204163,156.953888 486.149963,156.953674 495.162262,156.385117 
	C497.967804,156.159393 499.979614,156.120804 502.221466,156.344330 
	C503.599701,156.817566 504.747894,157.028687 505.891174,157.197906 
	C505.886261,157.156021 505.814819,157.201401 505.814819,157.201401 
	C506.100281,170.849014 506.385742,184.496628 506.793030,198.515320 
	C506.782623,203.366852 506.540283,207.847641 506.554413,212.327637 
	C506.564941,215.672897 505.270172,217.179718 501.795715,217.017960 
	C497.816223,216.832687 493.816071,216.860825 489.834442,217.026337 
	C486.739502,217.154999 485.758728,215.832031 485.891174,212.874557 
	C486.084259,208.561981 485.976105,204.235901 485.948029,199.444458 
z"/>
<path fill="#F0F0F1" opacity="1.000000" stroke="none" 
	d="
M380.676453,199.594727 
	C380.736145,187.006973 381.120392,174.871246 380.847992,162.750275 
	C380.736023,157.766769 382.403809,156.223022 387.084381,156.684158 
	C390.050690,156.976395 393.068909,156.718002 396.063324,156.752594 
	C403.006348,156.832794 402.978516,156.844193 402.997192,163.549484 
	C403.027740,174.529144 403.098389,185.508682 403.275848,196.903351 
	C403.399567,197.318420 403.443085,197.685120 403.602753,197.777954 
	C403.548828,201.513672 403.150879,205.156525 403.150635,208.799423 
	C403.148621,239.421783 403.165680,270.044464 403.333344,300.666138 
	C403.355408,304.700897 402.204956,306.509583 397.939148,306.215210 
	C393.964996,305.940948 389.939880,305.977722 385.964813,306.262665 
	C381.850555,306.557617 380.611633,305.101776 380.640869,300.906067 
	C380.861145,269.285431 380.832275,237.663010 380.870270,206.041122 
	C380.872650,204.045029 380.783203,202.048828 380.676453,199.594727 
z"/>
<path fill="#5B59A9" opacity="1.000000" stroke="none" 
	d="
M415.395599,198.611984 
	C416.989532,195.321808 423.475006,194.947052 426.989441,198.103058 
	C423.289917,198.577866 419.559998,198.686066 415.395599,198.611984 
z"/>
<path fill="#5B59A9" opacity="1.000000" stroke="none" 
	d="
M407.334106,198.533203 
	C407.464569,197.597626 408.058319,196.215317 408.461090,196.268875 
	C409.354553,196.387680 410.152252,197.226776 411.011047,198.090302 
	C409.925659,198.518280 408.818176,198.628113 407.334106,198.533203 
z"/>
<path fill="#F2F2F3" opacity="1.000000" stroke="none" 
	d="
M590.547913,199.630920 
	C590.603271,187.392517 590.736267,175.605881 590.862793,163.819168 
	C590.929810,157.578247 591.477722,156.975464 597.711975,156.828827 
	C601.201416,156.746750 604.712830,157.034439 608.180969,156.749634 
	C612.849121,156.366272 614.627075,157.951752 614.479370,162.887772 
	C614.126465,174.681854 614.316833,186.492203 614.511902,198.632950 
	C614.763245,232.216202 614.795227,265.462494 614.806030,298.708771 
	C614.806702,300.693756 614.638733,302.678833 614.010681,304.965942 
	C612.586121,305.610779 611.700012,305.953552 610.813965,306.296356 
	C605.832031,306.363251 600.837952,306.239044 595.871704,306.553589 
	C591.380981,306.838043 590.655945,304.453766 590.674500,300.744904 
	C590.767517,282.140411 590.753418,263.535309 590.739502,244.930435 
	C590.728333,229.981171 590.663696,215.031921 590.547913,199.630920 
z"/>
<path fill="#6360A4" opacity="1.000000" stroke="none" 
	d="
M611.084595,306.510925 
	C611.700012,305.953552 612.586121,305.610779 613.762329,305.331970 
	C613.153320,305.839142 612.254211,306.282318 611.084595,306.510925 
z"/>
<path fill="#4D4BA6" opacity="1.000000" stroke="none" 
	d="
M81.371109,198.723038 
	C80.977150,198.206223 80.990059,197.852173 81.014313,197.230545 
	C82.623528,197.270721 84.221397,197.578476 85.943161,198.206192 
	C84.637360,198.646027 83.207664,198.765915 81.371109,198.723038 
z"/>
<path fill="#4D4BA6" opacity="1.000000" stroke="none" 
	d="
M104.710732,158.254639 
	C104.980850,159.721664 104.987221,161.441757 104.983871,163.592804 
	C104.798424,162.185089 104.622704,160.346375 104.710732,158.254639 
z"/>
<path fill="#4B48D1" opacity="1.000000" stroke="none" 
	d="
M565.010010,163.427841 
	C566.989075,155.849014 567.359863,148.041138 573.670166,142.780807 
	C584.186829,134.014069 596.494690,130.719696 609.772766,132.584808 
	C618.229858,133.772766 626.854248,136.069534 632.687744,143.227524 
	C636.851135,148.336212 640.080688,154.025299 640.053955,160.994583 
	C640.015076,171.145447 639.947571,181.298309 640.114136,191.446671 
	C640.169373,194.810272 639.258240,196.327545 635.634094,196.110199 
	C631.322998,195.851654 626.947449,195.696899 622.667175,196.142883 
	C617.341614,196.697769 615.954956,194.027069 615.972961,189.494949 
	C616.009338,180.342529 615.998779,171.189819 615.978882,162.037292 
	C615.964294,155.327530 615.648376,155.035065 608.893921,155.033844 
	C604.234436,155.033005 599.571350,155.147034 594.916443,155.001419 
	C590.630249,154.867340 588.936218,156.814133 588.990112,161.014847 
	C589.109619,170.332275 589.026672,179.652313 589.022339,188.971298 
	C589.019043,196.140808 588.479675,196.838181 581.236023,196.882553 
	C577.186646,196.907379 573.136292,196.165329 569.081604,196.107803 
	C565.660339,196.059250 564.902832,194.295258 564.931152,191.339584 
	C565.018921,182.187836 564.981812,173.034882 565.010010,163.427841 
z"/>
<path fill="#4B48D2" opacity="1.000000" stroke="none" 
	d="
M916.662842,162.719406 
	C916.911377,171.337952 916.914001,179.680695 916.889282,188.486542 
	C912.310669,195.649033 905.377563,194.329346 898.981995,193.845093 
	C895.156799,193.555466 892.913696,190.819366 892.951294,186.599686 
	C893.024109,178.438339 893.005920,170.275528 892.949768,162.113861 
	C892.911377,156.545166 891.356873,155.045990 885.853271,155.029953 
	C881.092896,155.016098 876.330811,155.100616 871.572693,154.995377 
	C867.473999,154.904755 865.964111,156.905792 866.002563,160.832840 
	C866.100342,170.826202 865.915344,180.823227 866.088562,190.814529 
	C866.155518,194.673782 864.834961,196.275269 860.879944,196.090378 
	C855.893372,195.857224 850.868408,196.263138 845.903809,195.857529 
	C844.519653,195.744431 842.132019,193.701828 842.166870,192.606888 
	C842.562256,180.195923 840.423279,167.699280 843.853760,155.370743 
	C846.923096,144.340302 856.588318,135.874588 867.938416,133.552383 
	C877.937439,131.506592 887.016663,133.145172 896.311829,135.325745 
	C903.482971,137.008087 908.708862,141.804825 911.826965,148.307907 
	C913.949890,152.735519 914.927307,157.712372 916.662842,162.719406 
z"/>
<path fill="#4B48D3" opacity="1.000000" stroke="none" 
	d="
M501.991425,156.082199 
	C499.979614,156.120804 497.967804,156.159393 495.525452,156.221802 
	C487.675812,152.768753 484.034027,154.938339 484.032990,162.828583 
	C484.031738,172.239182 483.939026,181.650848 484.056488,191.059921 
	C484.109314,195.293518 482.342102,197.276184 478.089813,196.994339 
	C473.635620,196.699112 469.181061,196.241608 464.724091,196.208878 
	C461.022919,196.181702 460.083313,193.731552 460.104462,191.038116 
	C460.222992,175.931641 459.934235,160.780640 461.035889,145.736481 
	C461.900879,133.924515 462.706482,133.982468 474.505127,133.980148 
	C482.491272,133.978561 490.519287,133.482269 498.449310,134.149551 
	C504.068726,134.622391 509.882538,135.920197 515.035217,138.166931 
	C526.608521,143.213211 530.370667,153.469025 530.974243,165.234833 
	C531.405823,173.647903 531.568726,182.074448 531.952820,190.490372 
	C532.194824,195.793121 531.212158,196.955856 525.913452,196.979340 
	C521.920654,196.997040 517.927612,196.966843 513.391052,196.589340 
	C511.580505,195.812820 510.313599,195.404938 509.046692,194.997040 
	C508.699677,183.963501 508.401123,172.927963 507.948822,161.898743 
	C507.887085,160.393280 507.058044,158.919296 506.199524,157.316071 
	C505.814819,157.201401 505.886261,157.156021 505.800720,156.862991 
	C504.473907,156.407379 503.232666,156.244797 501.991425,156.082199 
z"/>
<path fill="#4D4BCE" opacity="1.000000" stroke="none" 
	d="
M509.103760,195.351807 
	C510.313599,195.404938 511.580505,195.812820 512.923767,196.562195 
	C511.720367,196.504639 510.440582,196.105621 509.103760,195.351807 
z"/>
<path fill="#4B49CF" opacity="1.000000" stroke="none" 
	d="
M298.000122,156.961853 
	C297.291412,156.265381 296.629913,155.162323 295.944214,155.147095 
	C289.955017,155.013931 283.944183,154.840149 277.983826,155.278046 
	C276.796906,155.365234 274.883087,157.998367 274.858887,159.482849 
	C274.682739,170.289612 275.000977,181.103928 274.878784,191.912643 
	C274.863373,193.275558 273.261627,195.730743 272.278870,195.791092 
	C266.218903,196.163269 260.115417,196.175873 254.052979,195.835175 
	C252.966644,195.774139 251.113480,193.503983 251.120422,192.262238 
	C251.202072,177.646347 251.570175,163.032074 251.865677,148.417419 
	C251.892578,147.086639 252.102554,145.737289 251.950348,144.428787 
	C250.972504,136.023087 255.915375,133.092285 262.392670,133.175507 
	C276.135437,133.352081 289.925659,133.827682 303.583710,135.257523 
	C313.320892,136.276917 323.348206,148.351425 323.925934,158.392883 
	C324.545227,169.157562 324.596161,179.953812 325.067383,190.728760 
	C325.217743,194.166870 324.210632,196.203842 320.533142,196.333847 
	C315.738098,196.503372 310.942230,196.858368 306.149292,196.819473 
	C301.562103,196.782288 299.953857,193.870728 299.975647,189.622559 
	C300.021790,180.632828 300.049866,171.641953 299.939941,162.653320 
	C299.918823,160.925598 299.231750,159.206009 298.548035,157.264648 
	C298.244202,157.046631 298.036133,157.059692 298.000122,156.961853 
z"/>
<path fill="#5B59A9" opacity="1.000000" stroke="none" 
	d="
M502.221466,156.344330 
	C503.232666,156.244797 504.473907,156.407379 505.805603,156.904877 
	C504.747894,157.028687 503.599701,156.817566 502.221466,156.344330 
z"/>
</svg>